<svg width="31" height="41" viewBox="0 0 31 41" fill="none" xmlns="http://www.w3.org/2000/svg">
<path d="M28.0181 27C28.0181 34.1797 21.1978 40.4999 14.0181 40.4999C6.83838 40.4999 0.0180792 33.6797 0.0180792 26.5C-0.481934 19 9.51808 4 14.0181 0C19.5181 5.5 28.5181 19 28.0181 27Z" fill="#FF0000"/>
<path d="M23.9929 29.6667C23.9929 32.5031 21.5604 35 18.9997 35C16.439 35 14.0064 32.3056 14.0064 29.4692C13.8281 26.5062 17.3947 20.5802 18.9997 19C20.9613 21.1728 24.1712 26.5062 23.9929 29.6667Z" fill="#D91515" fill-opacity="0.36"/>
<path d="M9.44 27C9.36667 26.76 9.28333 26.5133 9.19 26.26C9.10333 26.0067 9.01667 25.7533 8.93 25.5H6.23C6.14333 25.7533 6.05333 26.0067 5.96 26.26C5.87333 26.5133 5.79333 26.76 5.72 27H4.1C4.36 26.2533 4.60667 25.5633 4.84 24.93C5.07333 24.2967 5.3 23.7 5.52 23.14C5.74667 22.58 5.96667 22.05 6.18 21.55C6.4 21.0433 6.62667 20.55 6.86 20.07H8.35C8.57667 20.55 8.8 21.0433 9.02 21.55C9.24 22.05 9.46 22.58 9.68 23.14C9.90667 23.7 10.1367 24.2967 10.37 24.93C10.6033 25.5633 10.85 26.2533 11.11 27H9.44ZM7.57 21.64C7.53667 21.74 7.48667 21.8767 7.42 22.05C7.35333 22.2233 7.27667 22.4233 7.19 22.65C7.10333 22.8767 7.00667 23.1267 6.9 23.4C6.8 23.6733 6.69667 23.96 6.59 24.26H8.56C8.45333 23.96 8.35 23.6733 8.25 23.4C8.15 23.1267 8.05333 22.8767 7.96 22.65C7.87333 22.4233 7.79667 22.2233 7.73 22.05C7.66333 21.8767 7.61 21.74 7.57 21.64ZM14.317 27.09C13.937 27.09 13.557 27.0767 13.177 27.05C12.8037 27.03 12.4137 26.9767 12.007 26.89V20.17C12.327 20.11 12.677 20.0667 13.057 20.04C13.437 20.0067 13.7904 19.99 14.117 19.99C14.557 19.99 14.9604 20.0233 15.327 20.09C15.7004 20.15 16.0204 20.2567 16.287 20.41C16.5537 20.5633 16.7604 20.7667 16.907 21.02C17.0604 21.2667 17.137 21.5733 17.137 21.94C17.137 22.4933 16.8704 22.93 16.337 23.25C16.777 23.4167 17.077 23.6433 17.237 23.93C17.397 24.2167 17.477 24.54 17.477 24.9C17.477 25.6267 17.2104 26.1733 16.677 26.54C16.1504 26.9067 15.3637 27.09 14.317 27.09ZM13.527 23.98V25.77C13.6404 25.7833 13.7637 25.7933 13.897 25.8C14.0304 25.8067 14.177 25.81 14.337 25.81C14.8037 25.81 15.1804 25.7433 15.467 25.61C15.7537 25.4767 15.897 25.23 15.897 24.87C15.897 24.55 15.777 24.3233 15.537 24.19C15.297 24.05 14.9537 23.98 14.507 23.98H13.527ZM13.527 22.79H14.287C14.767 22.79 15.1104 22.73 15.317 22.61C15.5237 22.4833 15.627 22.2833 15.627 22.01C15.627 21.73 15.5204 21.5333 15.307 21.42C15.0937 21.3067 14.7804 21.25 14.367 21.25C14.2337 21.25 14.0904 21.2533 13.937 21.26C13.7837 21.26 13.647 21.2667 13.527 21.28V22.79ZM18.4158 23.39H20.0858V21.54H21.4458V23.39H23.1158V24.64H21.4458V26.49H20.0858V24.64H18.4158V23.39Z" fill="white"/>
</svg>
