<svg width="24" height="35" viewBox="0 0 24 35" fill="none" xmlns="http://www.w3.org/2000/svg">
<path d="M6.86405 0C6.86405 0 18.6778 5.94177 23.2844 19.265C24.4273 22.5836 24.2174 26.3048 22.538 29.355C20.8587 32.4052 19.2726 33.6497 15.7506 34.5891C13.1033 35.2968 10.2927 35.065 7.72706 34.0889C6.49086 33.6253 5.11473 32.9542 3.84355 32.0148C-0.1799 29.05 -1.10121 23.157 1.34785 18.6916C1.83766 17.8009 2.18752 16.9712 2.91058 15.9464C5.9544 11.5785 8.96325 4.39227 6.86405 0Z" fill="#ED3E3A"/>
<path d="M15.0011 21C15.0011 21 18.4462 22.7009 19.7918 26.507C20.1282 27.4585 20.0586 28.5171 19.5714 29.3854C19.2234 30.0157 18.6202 30.6105 17.5994 30.884C16.8223 31.0862 16.0103 31.0149 15.2563 30.7413C14.5023 30.4677 14.4907 30.4201 14.1196 30.1466C12.948 29.3021 12.6812 27.6131 13.3888 26.3405C13.528 26.0907 13.6324 25.8528 13.8412 25.5555C14.7343 24.3066 15.6043 22.2489 14.9895 21H15.0011Z" fill="#D02528"/>
<path d="M8.39844 19.2852L6.85156 24H5.60547L7.71875 18.3125H8.51172L8.39844 19.2852ZM9.68359 24L8.13281 19.2852L8.00781 18.3125H8.80859L10.9336 24H9.68359ZM9.61328 21.8828V22.8008H6.60938V21.8828H9.61328ZM13.6875 21.5039H12.2266L12.2188 20.6992H13.4453C13.6615 20.6992 13.8385 20.6719 13.9766 20.6172C14.1146 20.5599 14.2174 20.4779 14.2852 20.3711C14.3555 20.2617 14.3906 20.1289 14.3906 19.9727C14.3906 19.7956 14.3568 19.6523 14.2891 19.543C14.224 19.4336 14.1211 19.3542 13.9805 19.3047C13.8424 19.2552 13.6641 19.2305 13.4453 19.2305H12.6328V24H11.4609V18.3125H13.4453C13.776 18.3125 14.0716 18.3438 14.332 18.4062C14.5951 18.4688 14.8177 18.5638 15 18.6914C15.1823 18.819 15.3216 18.9805 15.418 19.1758C15.5143 19.3685 15.5625 19.5977 15.5625 19.8633C15.5625 20.0977 15.5091 20.3138 15.4023 20.5117C15.2982 20.7096 15.1328 20.8711 14.9062 20.9961C14.6823 21.1211 14.3893 21.1901 14.0273 21.2031L13.6875 21.5039ZM13.6367 24H11.9062L12.3633 23.0859H13.6367C13.8424 23.0859 14.0104 23.0534 14.1406 22.9883C14.2708 22.9206 14.3672 22.8294 14.4297 22.7148C14.4922 22.6003 14.5234 22.4688 14.5234 22.3203C14.5234 22.1536 14.4948 22.0091 14.4375 21.8867C14.3828 21.7643 14.2943 21.6706 14.1719 21.6055C14.0495 21.5378 13.888 21.5039 13.6875 21.5039H12.5586L12.5664 20.6992H13.9727L14.2422 21.0156C14.5885 21.0104 14.8672 21.0716 15.0781 21.1992C15.2917 21.3242 15.4466 21.487 15.543 21.6875C15.6419 21.888 15.6914 22.1029 15.6914 22.332C15.6914 22.6966 15.612 23.0039 15.4531 23.2539C15.2943 23.5013 15.0612 23.6875 14.7539 23.8125C14.4492 23.9375 14.0768 24 13.6367 24ZM20.1797 20.832V21.8125H16.2812V20.832H20.1797ZM18.7656 19.2891V23.4297H17.6992V19.2891H18.7656Z" fill="white"/>
</svg>
