<svg width="54" height="66" viewBox="0 0 54 66" fill="none" xmlns="http://www.w3.org/2000/svg">
<g filter="url(#filter0_d_45_87)">
<path d="M26.9863 1L42.5512 17.4069C45.6294 20.6495 47.7262 24.7815 48.5762 29.2803C49.4263 33.7791 48.9914 38.4426 47.3267 42.6809C45.662 46.9192 42.8422 50.5419 39.224 53.0907C35.6058 55.6396 31.3518 57 27 57C22.6482 57 18.3942 55.6396 14.776 53.0907C11.1578 50.5419 8.33798 46.9192 6.67328 42.6809C5.00858 38.4426 4.57375 33.7791 5.42379 29.2803C6.27383 24.7815 8.37056 20.6495 11.4488 17.4069L26.9863 1Z" fill="#F44B4B"/>
<path d="M26.9863 1L42.5512 17.4069C45.6294 20.6495 47.7262 24.7815 48.5762 29.2803C49.4263 33.7791 48.9914 38.4426 47.3267 42.6809C45.662 46.9192 42.8422 50.5419 39.224 53.0907C35.6058 55.6396 31.3518 57 27 57C22.6482 57 18.3942 55.6396 14.776 53.0907C11.1578 50.5419 8.33798 46.9192 6.67328 42.6809C5.00858 38.4426 4.57375 33.7791 5.42379 29.2803C6.27383 24.7815 8.37056 20.6495 11.4488 17.4069L26.9863 1Z" stroke="#FBFBFB" stroke-width="2" stroke-linecap="round" stroke-linejoin="round"/>
</g>
<defs>
<filter id="filter0_d_45_87" x="0" y="0" width="54" height="66" filterUnits="userSpaceOnUse" color-interpolation-filters="sRGB">
<feFlood flood-opacity="0" result="BackgroundImageFix"/>
<feColorMatrix in="SourceAlpha" type="matrix" values="0 0 0 0 0 0 0 0 0 0 0 0 0 0 0 0 0 0 127 0" result="hardAlpha"/>
<feOffset dy="4"/>
<feGaussianBlur stdDeviation="2"/>
<feComposite in2="hardAlpha" operator="out"/>
<feColorMatrix type="matrix" values="0 0 0 0 0 0 0 0 0 0 0 0 0 0 0 0 0 0 0.25 0"/>
<feBlend mode="normal" in2="BackgroundImageFix" result="effect1_dropShadow_45_87"/>
<feBlend mode="normal" in="SourceGraphic" in2="effect1_dropShadow_45_87" result="shape"/>
</filter>
</defs>
</svg>
