<?xml version="1.0" encoding="utf-8"?>
<!-- Generator: Adobe Illustrator 28.0.0, SVG Export Plug-In . SVG Version: 6.00 Build 0)  -->
<svg version="1.1" id="Layer_1" xmlns="http://www.w3.org/2000/svg" xmlns:xlink="http://www.w3.org/1999/xlink" x="0px" y="0px"
	 width="1024px" height="1024px" viewBox="0 0 1024 1024" enable-background="new 0 0 1024 1024" xml:space="preserve">
<path fill="#A73022" d="M778.8,210.5c4.2,4,7.5,8.9,11.1,13.5c10.2,13.2,20.8,26.6,27.6,42c2.4,5.4,3.3,11.1,5.1,16.5
	c0.9,3.1,1.1,6.2,1,9.4l-8.8,0c-2.1-25.9-20.7-48.6-35.9-68.3l-0.2-1C779,218.6,778.8,214.5,778.8,210.5z"/>
<path fill="#DB2C2C" d="M779,223.7c15.2,19.7,33.8,42.5,35.9,68.3l-34.5,0l-1.5-0.2C779,269.1,779.1,246.4,779,223.7z"/>
<path fill="#13A0B4" d="M195,282.2c5.8-13.1,29.7-64.7,40.9-69.7c8.3-3.7,18.3,11.5,22.8,16.7c1.8,2.1,3.8,3.8,6,5.5
	c8.6,6.7,18.7,11.4,28,16.9c2.6,1.5,5.4,4,8.2,5c0.2,0.1,0.4,0.1,0.6,0.2c0,8.6,0.2,17.3-0.1,25.9l-13.7,0l-6.4,0
	c-0.1-2.4-0.5-4.7-0.9-7.1c-4.4-16.8-15.8-32.3-25.6-46.4c-2.7-4-6-10-10.1-12.6c-0.7-0.4-1.4-0.6-2.2-0.7
	c-4.5,1.2-7.1,6.5-9.2,10.3c-9.8,17.3-19.4,36.8-23.1,56.5c-4.4-0.5-8.9-0.1-13.3-0.1c-7.7,0.1-15.4,0.1-23,0
	C180.5,281.3,188.2,282,195,282.2z"/>
<path fill="#167588" d="M280.3,275.3c2.7,0.9,5,2.3,6.4,4.9c0.4,0.7,0.6,1.5,0.9,2.3l-6.4,0C281.1,280,280.7,277.7,280.3,275.3z"/>
<path fill="#EF6350" d="M742.8,257.4c9.1-14.8,19-28.7,30-42.2c1.6-2,3.3-4.4,6-4.7c0,4,0.2,8.1,0,12.1l0.2,1
	c0.1,22.7,0.1,45.5-0.1,68.2c-4.6,0.5-9.5,0.2-14.1,0.2l-25.9,0L733,292c-0.1-3.1,0.4-6.1,0.9-9.2c0.9-4.4,2.1-8.7,3.6-13
	C739,265.5,740.8,261.4,742.8,257.4z"/>
<path fill="#DB2C2C" d="M742.8,257.4c9.1-14.8,19-28.7,30-42.2c1.6-2,3.3-4.4,6-4.7c0,4,0.2,8.1,0,12.1c-2.7,0.1-6,4-7.8,6
	c-13.6,15.1-31,42.9-32.2,63.4L733,292c-0.1-3.1,0.4-6.1,0.9-9.2c0.9-4.4,2.1-8.7,3.6-13C739,265.5,740.8,261.4,742.8,257.4z"/>
<path fill="#F4BE41" d="M210.2,282.5c3.7-19.7,13.2-39.2,23.1-56.5c2.2-3.8,4.7-9.1,9.2-10.3c0.8,0.1,1.5,0.3,2.2,0.7
	c4.1,2.7,7.4,8.7,10.1,12.6c9.8,14.1,21.2,29.6,25.6,46.4c0.4,2.4,0.8,4.7,0.9,7.1c-0.1,3,0,6.1-0.2,9.1c-13-0.7-26.2-0.3-39.2-0.2
	c-11,0.1-22-0.2-33,0.3C209.2,288.5,209.6,285.5,210.2,282.5z"/>
<path fill="#FDD27C" d="M243.7,231.7c0.2,0.1,0.4,0.1,0.5,0.2c3.6,1.5,5.6,6.9,7,10.3c-2.2,12.9-12.5,28.8-20.4,39.5
	c-0.2,0.1-0.5,0.2-0.7,0.3c-1.6,0.7-3,0.5-4.6-0.1c-0.6-0.7-0.9-1.1-1.1-2.1C222.1,269.4,237.6,240.6,243.7,231.7z"/>
<path fill="#DB2C2C" d="M261.5,778.1c2-0.2,4-0.4,6,0.1c2.9,0.7,5.6,2.6,7.1,5.2c0.2,0.3,0.4,0.7,0.5,1c0.2,0.3,0.3,0.7,0.4,1.1
	c0.1,0.4,0.2,0.7,0.3,1.1c0.1,0.4,0.1,0.7,0.2,1.1c0,0.4,0.1,0.8,0.1,1.1c0,0.4,0,0.8-0.1,1.1c0,0.4-0.1,0.8-0.2,1.1
	c-0.1,0.4-0.2,0.7-0.3,1.1c-1.3,3.9-4.1,6-7.6,7.7c-1.8,0.1-3.7,0.3-5.5-0.1c-3-0.7-5.8-2.7-7.3-5.4c-0.2-0.3-0.4-0.7-0.5-1
	c-0.2-0.3-0.3-0.7-0.4-1.1c-0.1-0.4-0.2-0.7-0.3-1.1c-0.1-0.4-0.1-0.7-0.2-1.1c0-0.4-0.1-0.8-0.1-1.1c0-0.4,0-0.8,0-1.1
	s0.1-0.8,0.2-1.1c0.1-0.4,0.2-0.7,0.3-1.1C255.4,781.8,258,779.8,261.5,778.1z"/>
<path fill="#DB2C2C" d="M782.6,822.6c2-0.2,4.1-0.4,6.1,0.1c3.2,0.8,6.2,2.8,7.9,5.8c0.2,0.3,0.3,0.6,0.4,0.9c0.1,0.3,0.3,0.6,0.4,1
	c0.1,0.3,0.2,0.7,0.3,1c0.1,0.3,0.1,0.7,0.2,1c0,0.3,0.1,0.7,0.1,1c0,0.3,0,0.7-0.1,1s-0.1,0.7-0.2,1c-0.1,0.3-0.2,0.7-0.3,1
	c-1.2,3.9-4.1,6-7.5,7.9c-3.2,0.7-6.1,1-9.1-0.7c-3.8-2.2-5-6-5.9-9.9c0-0.2,0.1-0.4,0.1-0.6C776.3,827.7,777.8,825.4,782.6,822.6z"
	/>
<path fill="#DB2C2C" d="M794.7,713.3c2.9,2.7,20.4,34.3,22.5,39.3c1.6,3.8,2.9,7.8,3.3,11.9c0.6,6.9-1.8,13.4-6.2,18.7
	c-5.1,6-11.3,8.3-18.9,8.9c-5.1-0.3-9.7-1.5-14-4.3c-0.4-0.2-0.7-0.5-1.1-0.7c-0.4-0.3-0.7-0.5-1.1-0.8c-0.3-0.3-0.7-0.6-1-0.8
	c-0.3-0.3-0.7-0.6-1-0.9c-0.3-0.3-0.6-0.6-0.9-0.9c-0.3-0.3-0.6-0.6-0.9-1c-0.3-0.3-0.6-0.7-0.8-1c-0.3-0.3-0.5-0.7-0.8-1.1
	c-0.3-0.4-0.5-0.7-0.7-1.1c-0.2-0.4-0.5-0.8-0.7-1.1s-0.4-0.8-0.6-1.2c-0.2-0.4-0.4-0.8-0.6-1.2c-0.2-0.4-0.3-0.8-0.5-1.2
	s-0.3-0.8-0.4-1.2c-0.1-0.4-0.3-0.8-0.4-1.3c-0.1-0.4-0.2-0.9-0.3-1.3c-2.9-13.5,5.5-25.5,12-36.5
	C785.8,727.2,790.1,720.2,794.7,713.3z"/>
<path fill="#A73022" d="M797.9,742.8c3.9,3.1,9.2,13.2,10.7,18c1.3,4.2,1.1,8.5-1.1,12.4c-2.3,4-6,6-10.3,7.3
	c-2.9-0.2-5.5-1-7.9-2.7c-2.3-1.6-3.3-4.1-3.6-6.8C784.3,760.4,792,750.8,797.9,742.8z"/>
<path fill="#167588" d="M510.7,915.5c72.6-28,153.7-84.1,203.2-144.3c9.8-11.7,19.1-23.7,28-36.1c4.1-5.8,12.4-21.3,16.9-25.1
	c7-6,19.2-10.6,27.6-14.8l69-34.6c4.8-2.4,9.6-4.9,14.4-7.2c3.8-1.8,8-3.3,11.4-5.7c1.4-1,2.2-1.7,2.6-3.4
	c1.6-6.8,0.9-15.5,1.1-22.5l1.4-55.4c0.2-10.2-0.7-21.5,1.1-31.5c0-0.2,0.1-0.3,0.1-0.5c1.5,11.8,0.5,24.1,0.6,35.9
	c0.2,30.6,1.2,63.3-3.2,93.6l-0.6,0.4c-9.1,5.8-22.8,11.2-33,16.2c-21.3,10.4-42.3,21.3-63.1,32.6c-7.8,4.3-17,8.3-23.9,13.9
	c-5.4,4.4-9.1,12.4-13.1,18.2c-3.6,5.3-7.3,10.5-11.1,15.7c-7.3,10-15.2,19.6-22.9,29.2c-44,54.5-101,94.7-163.3,125.7
	c-13.9,6.9-28.1,14.6-43,19.2c-10.6-4.1-20.8-9.9-31-14.8c-7.8-3.7-15.5-7.7-23.1-11.7c-7.6-4.1-15.1-8.4-22.5-12.8
	c-7.4-4.4-14.7-9-21.9-13.8c-7.2-4.8-14.3-9.7-21.3-14.8c-7.7-5.7-15.1-12-22.5-18c-12.8-10.5-25.3-21.2-36.8-33.1
	c-10.1-10.4-19.5-21.8-28.5-33.1c-8-10.1-15.8-20.6-23-31.3c-3.7-5.6-6.9-11.6-10.8-17c-0.8-1.1-1.7-2.1-2.8-2.9
	c-8.3-5.6-22.7-12.1-32.1-17.2c-19.1-10.4-37.8-21.3-56.8-31.8c-9-4.9-19.4-9.4-27.5-15.6c-2.4-1.8-4-3.5-5.3-6.2
	c-2.3-5.3-1.9-11.8-2-17.5c7.4,3.8,14.5,8.8,21.9,12.8l74.6,40.4c9.3,5,18.5,10.5,28,15.2c8.6,15.6,16.9,31.5,27.3,46
	c11,15.5,24.4,30.1,37.8,43.5C386.4,855.2,441.9,884.4,510.7,915.5z"/>
<path fill="#064984" d="M301.4,256.6c0.1-9.6-1.3-21.5,0.7-30.7c1.1-5.3,4-9.3,8.6-12.2c5.8-3.6,14.3-6.6,20.7-9.6l58.9-26.6
	l74.5-34.6c10.3-4.7,22.2-11.5,32.9-14.6c8-2.4,18.1-2.4,26.2-0.4c7.8,1.9,15.3,6.1,22.6,9.5c13.7,6.3,27.4,13,41.2,19.2l82.9,37.4
	c14.4,6.5,32.8,13.8,46.3,21.4c2.9,1.6,4.5,3.9,6.1,6.7c0.1,4,0,8,0,11.9c9.1,5.7,14.1,14.5,19.8,23.3c-2,4-3.8,8.2-5.3,12.4
	c-1.5,4.3-2.7,8.6-3.6,13c-0.5,3.1-0.9,6.1-0.9,9.2l5.8,0.1l25.9,0c4.6,0,9.5,0.3,14.1-0.2l1.5,0.2l34.5,0l8.8,0
	c0.1-3.2-0.1-6.3-1-9.4c9.3-0.1,31-2.3,37.7,4.6c2.4,2.4,3.9,5.9,4.6,9.1c1.5,7.2,1,29.7,0.6,37.9c-0.3,6-1.5,9.6-6,13.6
	c-1.4,1.3-2.9,2.5-4.4,3.7l0,9.4c-0.3,16.5-0.1,33.1-0.1,49.6c0,15.6-0.3,31.2-0.1,46.7c10.9,0.1,21.9,0.2,32.8,0.1
	c-0.6,25.6,0.1,51.3-0.2,77c0,0.2-0.1,0.3-0.1,0.5c-1.8,10-0.9,21.3-1.1,31.5l-1.4,55.4c-0.2,7.1,0.5,15.7-1.1,22.5
	c-0.4,1.7-1.1,2.4-2.6,3.4c-3.4,2.4-7.7,3.9-11.4,5.7c-4.9,2.3-9.6,4.8-14.4,7.2l-69,34.6c-8.4,4.2-20.6,8.8-27.6,14.8
	c-4.5,3.9-12.8,19.4-16.9,25.1c-8.8,12.4-18.2,24.5-28,36.1c-49.5,60.2-130.6,116.3-203.2,144.3c-68.8-31-124.2-60.3-178.3-114.3
	c-13.4-13.4-26.8-28.1-37.8-43.5c-10.3-14.5-18.7-30.4-27.3-46c-9.5-4.7-18.6-10.2-28-15.2l-74.6-40.4c-7.3-4-14.5-9-21.9-12.8
	c0,0-0.1-0.1-0.1-0.1c-3.8-3.8-5-7.3-5.1-12.5c-0.4-32.8,0.4-65.6,0.1-98.4c-0.1-15-0.2-29.9-0.1-44.9c0-7.7-0.6-16,0.3-23.7
	c0.5-3.9,1.7-7.8,4.5-10.6c2.8-2.7,6.8-3.8,10.7-3.7c6.5,0.2,11.1,3.5,15.5,8.1c-0.4-32.1-0.1-64.3-0.1-96.4l0-9.4
	c-4.6-3.3-8.5-6.8-9.6-12.6c-1.1-5.5-0.9-35.6,0-41.1c0.1-0.8,0.3-1.5,0.5-2.3c0.2-0.7,0.5-1.5,0.7-2.2c0.3-0.7,0.6-1.4,1-2.1
	c0.4-0.7,0.8-1.4,1.2-2c2.7-4,6.7-6.3,11.4-7.1c7.7,0.1,15.4,0.2,23,0c4.4-0.1,9-0.4,13.3,0.1c-0.6,3.1-1,6-1.3,9.1
	c11-0.5,22-0.2,33-0.3c13-0.1,26.2-0.5,39.2,0.2c0.2-3,0.1-6.1,0.2-9.1l6.4,0l13.7,0C301.6,273.9,301.4,265.3,301.4,256.6z"/>
<path fill="#F9C4A0" d="M511.5,777.5c9.4,9.2,21.5,16.4,32.3,24c4.3,3,9,6.1,12.7,9.7c0.3,6.3-0.7,11.4-5.1,16.2
	c-3,3.1-6.9,5.2-11.3,5.2c-7.7,0-13.1-5.6-18.3-10.5c0.4-0.3,0.7-0.6,1.1-1c3.1-3.1,5.1-7.1,5-11.6c-0.1-4.6-2.2-9.5-5.6-12.7
	c-4-3.7-7.7-4-12.9-3.9l-4.2-4.1C507.9,785.3,509.7,781.6,511.5,777.5z"/>
<path fill="#DB2C2C" d="M386.2,715.6c4.4,0.3,7.7,1.1,11.2,4c3,2.6,5.1,6.3,5.4,10.2c0.3,4.1-1.3,6.8-3.8,9.8
	c-4.1,4.8-11.7,13.2-17.1,16.2c-1.1,0.6-2.4,0.7-3.6,0.8c-4.1-0.7-8-1.8-11.4-4.3c-2.9-2.1-4.9-5.1-5.4-8.7
	c-0.6-4.1,1.2-7.7,3.5-10.9C369.5,726.4,378.2,716.9,386.2,715.6z"/>
<path fill="#DB2C2C" d="M509.4,793c5.1-0.1,8.9,0.2,12.9,3.9c3.4,3.2,5.5,8.1,5.6,12.7c0.1,4.5-1.9,8.5-5,11.6
	c-0.3,0.3-0.7,0.7-1.1,1c-8.3,6.1-14.4,18.4-25.9,18.4c-4.7,0-9.2-2.2-12.4-5.5c-3.4-3.6-3.5-7.4-3.4-12
	C483.9,816.1,502.6,797.7,509.4,793z"/>
<path fill="#4AC4D0" d="M148.6,634.2c-0.9-11.9-0.3-24.2-0.3-36.1l0-67l0-44.8c0-7.6-0.8-16.2,0.1-23.7c0.2-1.3,0.7-2.3,1.9-3
	c1.1-0.7,2.1-0.8,3.4-0.5c5.1,1.2,10,10.4,12.7,14.5c-0.2,2,0,5.5-1.7,6.8c-0.1,0.1-0.3,0.2-0.4,0.3c-3.3-4.7-6.3-9.5-10.9-13.1
	l0,97c-0.2,13.1-0.3,26.2-0.3,39.3c0,6.5-0.2,13.2,0.3,19.7c0.2,2.9,0.6,8.4,2.7,10.4c7.8,7.7,20,12.2,29.7,17.3
	c15.1,8.2,30.4,16.3,45.7,24.2c16.3,8.6,32.1,17.9,48.7,26l-2.2,4.9c-8.5-5.1-17.8-9.3-26.6-14.1c-20.2-11-40.3-22.2-60.7-32.9
	c-12.1-6.3-25.7-12.3-37-19.8C151.5,638,150.1,636.5,148.6,634.2z"/>
<path fill="#DB2C2C" d="M425.4,726.1c3-0.1,5.7,0.5,8.4,1.7c4.3,1.9,7.4,5.4,9,9.8c0.1,0.4,0.3,0.8,0.4,1.2c0.1,0.4,0.2,0.8,0.2,1.2
	c0.1,0.4,0.1,0.8,0.1,1.3c0,0.4,0,0.8,0,1.3c0,0.4-0.1,0.8-0.1,1.3c-0.1,0.4-0.2,0.8-0.3,1.2c-0.1,0.4-0.2,0.8-0.4,1.2
	c-0.2,0.4-0.3,0.8-0.5,1.2c-3.2,6.2-34.9,36.8-41.8,42c-1.9,1.4-3.6,2.3-5.8,2.9c-3.3,0.1-6.5-0.3-9.6-1.8c-3.8-1.9-7.2-5.4-8.4-9.5
	c-1-3.4-0.6-7.9,1.3-11c3.1-5.1,34.3-36.5,39.8-40.7C420.1,727.5,422.6,726.8,425.4,726.1z"/>
<path fill="#DB2C2C" d="M486.3,763.7c4.3-2.5,8.2-3.9,13.2-2.6c4.7,1.2,8.5,4.5,10.8,8.7c1,1.8,1.2,3.4,1.3,5.4l-0.1,2.3
	c-1.8,4-3.6,7.8-6.3,11.3c-11.8,12.8-24.1,25.6-36.6,37.6c-3.8,3.7-8.3,7.4-13.8,7.2c-4.8-0.2-9.3-3-12.4-6.5
	c-3.7-4.3-3.7-8.7-3.3-14c2.9-5.3,8.5-10,12.7-14.3C463.2,787,475.3,775.8,486.3,763.7z"/>
<path fill="#DB2C2C" d="M456.6,733.8c5.6-2.1,10.9-3.6,16.7-1.1c4.4,1.9,7.9,5.8,9.6,10.3c1.8,4.9,1.4,10.7,0.3,15.7
	c-1.5,2.3-3.3,4.3-5.2,6.3c-9.9,10.7-20.3,20.7-30.5,31.1c-5.3,5.4-10.9,12.6-17.1,16.9c-2.8,2-5.9,3.2-9.4,3.2
	c-4.2,0.1-8.6-1.4-11.5-4.4c-3.3-3.3-5.2-8.2-5.2-12.9c0-2.3,0.6-4.7,1.9-6.6c4.5-6.3,11.4-11.7,16.8-17.3
	c12.4-12.7,24.6-25.6,37.2-38.1L456.6,733.8z"/>
<path fill="#3B92D7" d="M153.5,467.4c4.5,3.6,7.6,8.4,10.9,13.1c-1.7,5.4-1.5,87.4-0.1,96.9c1.5,10.2,4.7,20.6,9.5,29.7
	c12.1,23,30.7,38.8,55.6,46.5c21.2,6.5,42.6,5.1,62.2-5.4c4.6-2.4,8.5-5.3,12.3-8.7c1.7-1.5,3.5-3.5,5.3-4.7
	c0.5-0.3,1.1-0.4,1.7-0.5c-5.3,12.2-11,24.1-16.5,36.2c-4.7,10.3-9,20.6-14.1,30.7c-16.6-8-32.4-17.4-48.7-26
	c-15.3-7.9-30.6-15.9-45.7-24.2c-9.7-5.2-21.9-9.6-29.7-17.3c-2.1-2-2.5-7.5-2.7-10.4c-0.5-6.5-0.3-13.2-0.3-19.7
	c0-13.1,0.1-26.2,0.3-39.3L153.5,467.4z"/>
<path fill="#D2E7E8" d="M468.5,603.8c6.6-1.6,13.3-2.6,19.9-4c15.5-3.4,29.7-8.1,45.6-4.5c14.8,5.7,31.9,19.8,45.4,29
	c8.5,5.8,17,11.6,25.4,17.5c4.9,3.4,10.1,6.7,14.6,10.7c3.1,2.7,5.8,5.7,7.5,9.5c2.4,5.3,2.2,11.6,0.1,17
	c-1.9,4.7-5.4,8.2-10.1,10.2c-4.6,1.9-9.5,2.5-14.2,0.5c-5.8-2.5-10.9-7.5-16.1-11.1c-7.6-5.4-15.4-10.4-23-15.8
	c-9-6.3-33.1-25.8-41.9-27.7c-8.5-1.8-20.8,1.3-28.9,4.3c-6.3,2.3-10.3,6.5-14.9,11.1c-4.7,4.7-9.4,9.5-14,14.2
	c-10.8,11.3-20.5,21.4-37.8,13.9c-5-2.2-10.1-7-12.1-12.2c-1.8-4.6-1.1-9.6,1-14c0.9-1.8,2-3.6,3.3-5.2c4.2-5.4,9.1-10.4,13.4-15.7
	c4.9-6.1,9.3-13.6,15-18.7c3.4-3.1,8-5.1,12.3-6.5C462.3,605,465.4,604.3,468.5,603.8z"/>
<path fill="#A73022" d="M463,593.6c11.8-4.8,25-7,37.3-10.1c11.6-2.9,26.7-7.9,38.2-8.9c5-0.4,10.3,0.7,15.1,2
	c10.5,2.9,22.3,12,32,13.6c6.8,1.1,14.7,0.3,21.7,0.3c16.3,0,32.6,0.2,48.9-0.3c9.2,23,18.1,46.1,26.8,69.3
	c3.8,10.3,7.7,20.6,11.7,30.8c2.4,6.2,4.7,12.8,8,18.5c-6.6,4.5-15.4,7.2-22.6,10.5c-9.9,4.5-20.1,10-30.4,13.4
	c-1.4-2.8-2.8-5.5-5-7.8c-7.9-8.2-30.9-21.1-41.2-27.5c6.5,1,12.6,1.5,18.8-1.3c5.5-2.4,10.8-7.4,13-13.1c2.7-7,2.1-16-1.1-22.7
	c-2.1-4.5-5.2-7.4-9-10.5c-7-5.7-15.1-10.2-22.5-15.2c-12.8-8.6-25.6-17-38.5-25.3c-9-5.8-17.1-12.3-27.3-15.9
	c-16.6-4-31.8,0.5-48,3.8c-7.3,1.5-14.7,2.8-22.1,3.8c-5.5,0.4-11.3,0.8-16.8,0.5C453.7,598.5,458.5,596.1,463,593.6z"/>
<path fill="#45AFE8" d="M166.4,473.5c4,4.3,8,7.1,13.1,10c8.4,4.4,16.5,9.5,24.9,13.9l85.6,44.8c7.5,3.8,19.5,12,26.9,14.3
	c4.1,2,21.7,10.3,23.6,13.1c-5.7,14-12.2,27.6-18.6,41.3c-3.6,7.7-7,15.9-11.1,23.4c-0.6,0.1-1.1,0.1-1.7,0.5
	c-1.9,1.2-3.6,3.2-5.3,4.7c-3.9,3.4-7.8,6.3-12.3,8.7c-19.6,10.5-41,11.9-62.2,5.4c-24.9-7.6-43.5-23.4-55.6-46.5
	c-4.8-9.2-8-19.5-9.5-29.7c-1.4-9.6-1.6-91.5,0.1-96.9c0.1-0.1,0.3-0.2,0.4-0.3C166.4,478.9,166.3,475.5,166.4,473.5z"/>
<path fill="#FEFEFD" d="M316.5,715.8c5.6,4.6,38.6,29,40.1,32.4c1.1,2.4,2.2,5.2,3.7,7.3c3.1,4.3,8.5,6,13.5,6.8
	c-1.2,2-2.4,4.1-3.2,6.2c-0.1,0.3-0.2,0.7-0.3,1c-0.1,0.3-0.2,0.7-0.3,1c-0.1,0.3-0.2,0.7-0.2,1c-0.1,0.4-0.1,0.7-0.2,1.1
	c0,0.4-0.1,0.7-0.1,1.1c0,0.4-0.1,0.7-0.1,1.1c0,0.4,0,0.7,0,1.1c0,0.4,0,0.7,0,1.1c0,0.4,0.1,0.7,0.1,1.1c0,0.4,0.1,0.7,0.1,1.1
	c0.1,0.4,0.1,0.7,0.2,1.1c0.1,0.4,0.2,0.7,0.3,1c0.1,0.3,0.2,0.7,0.3,1c0.1,0.3,0.2,0.7,0.4,1s0.3,0.7,0.4,1c0.1,0.3,0.3,0.7,0.5,1
	c0.2,0.3,0.3,0.7,0.5,1c0.2,0.3,0.4,0.6,0.6,1c0.2,0.3,0.4,0.6,0.6,0.9c0.2,0.3,0.4,0.6,0.6,0.9c0.2,0.3,0.5,0.6,0.7,0.9
	c0.2,0.3,0.5,0.6,0.7,0.8c0.3,0.3,0.5,0.5,0.8,0.8c0.3,0.3,0.5,0.5,0.8,0.8c0.3,0.2,0.6,0.5,0.8,0.7c0.3,0.2,0.6,0.5,0.9,0.7
	c0.3,0.2,0.6,0.4,0.9,0.6c0.3,0.2,0.6,0.4,0.9,0.6c0.3,0.2,0.6,0.4,1,0.5c0.3,0.2,0.7,0.3,1,0.5c0.3,0.2,0.7,0.3,1,0.4
	c0.3,0.1,0.7,0.3,1,0.4c5,1.7,9.6,1.5,14.3-0.7c0,4.6,0.1,8.7,1.9,13.1c2.2,5.4,6.4,10.1,11.9,12.2c6.7,2.6,13.5,1.7,19.8-1.2
	c1.5,6.8,4.5,12.5,10.6,16.3c5.3,3.3,11.9,4,17.8,2.4c6.1-1.7,9.5-5.2,12.6-10.4c1.6,4.8,3.7,8.9,7.6,12.3c0.3,0.2,0.5,0.5,0.8,0.7
	c0.3,0.2,0.6,0.5,0.9,0.7c0.3,0.2,0.6,0.4,0.9,0.6c0.3,0.2,0.6,0.4,0.9,0.6c0.3,0.2,0.6,0.4,0.9,0.5c0.3,0.2,0.6,0.3,1,0.5
	c0.3,0.2,0.7,0.3,1,0.4c0.3,0.1,0.7,0.3,1,0.4c0.3,0.1,0.7,0.2,1,0.3c0.3,0.1,0.7,0.2,1.1,0.3c0.4,0.1,0.7,0.2,1.1,0.2
	s0.7,0.1,1.1,0.2c0.4,0,0.7,0.1,1.1,0.1c0.4,0,0.7,0.1,1.1,0.1s0.7,0,1.1,0c0.4,0,0.7,0,1.1,0c7.7-0.5,12.6-4.6,17.3-10.2
	c2.5-0.5,4.4-1.3,6.4-2.9c3.6,3.2,7.5,5.6,12.1,7c6.3,1.9,12.7,1.3,18.5-2c7.6-4.2,11.1-10.6,13.6-18.6c2,1.1,4,2.3,6.2,3
	c5.1,1.5,10.5,0.3,15-2.3c7.6-4.4,11.1-11,13.2-19.3c2.8,0.4,5.6,0.8,8.5,0.4c6.6-0.7,12.1-4,16.2-9.2c5.3-6.9,7.3-14.9,6.2-23.5
	c4.8-1.2,8.9-3,12.6-6.5c5.8-5.5,8.8-13.5,9-21.4c16.7-6.8,33.6-14.4,49.9-22.1c3.9,4.5,8.9,7.4,14.8,8.2c9.9,1.3,17.5-3.5,25.1-9.2
	c-8.2,12.6-17.4,24.7-26.9,36.4c-43.5,54.7-100.7,98.8-163.1,130c-12.9,6.4-26.4,13.2-40,17.8c-13.4-3.2-38-15.7-50.7-22.2
	c-18.2-9.2-35.5-19.4-52.6-30.4c-8.5-5.5-17.2-11-25.3-17c-4.1-3.1-8.1-6.2-12.1-9.5c-4-3.2-7.9-6.5-11.7-9.9
	c-3.9-3.4-7.6-6.8-11.4-10.4c-3.7-3.5-7.4-7.1-11-10.8c-3.6-3.7-7.1-7.4-10.6-11.2c-3.4-3.8-6.8-7.6-10.1-11.6
	c-3.3-3.9-6.5-7.9-9.7-11.9c-3.2-4-6.2-8.1-9.2-12.3c-5.8-8.2-11.1-16.8-16.4-25.3c4.7,2.3,9.1,5.2,13.8,7.6
	c3.6,1.8,7.6,2.9,11.6,1.5C311.8,726.6,314.1,720.8,316.5,715.8z"/>
<path fill="#DDD8D2" d="M208.9,291.6c11-0.5,22-0.2,33-0.3c13-0.1,26.2-0.5,39.2,0.2c10.1,0.4,30.8-1.2,39.3,0.8
	c1.5,0.3,2.8,1.1,4.1,2c1,1.3,2,2.6,2.4,4.2c1.5,5.8,1.3,30.1,0.6,36.4c-0.3,2.8-1,5.3-3.3,7.1c-2.1,1.7-4.9,2.1-7,3.6
	c0.5,70.3,0.5,140.6,0,210.9c-7.4-2.4-19.5-10.5-26.9-14.3l-85.6-44.8c-8.4-4.5-16.5-9.6-24.9-13.9c-0.1-7.3-0.2-14.7,0.4-22l0-72.4
	c-0.6-4.8-0.3-10.2-0.3-15.1c0-9.2-0.2-18.4,0.3-27.6c-5-2.2-8-3.5-10.4-8.7c0.3-3.3,0-6.8-0.1-10l0-5.3l0-11.6l0-4.6l0-6.5
	c0.6-1.2,1.3-2.5,2.2-3.5c5.8-7.2,27.5-3.6,36.7-4.5C208.5,291.6,208.7,291.6,208.9,291.6z"/>
<path fill="#85CEEC" d="M208.9,291.6c11-0.5,22-0.2,33-0.3c13-0.1,26.2-0.5,39.2,0.2c10.1,0.4,30.8-1.2,39.3,0.8
	c1.5,0.3,2.8,1.1,4.1,2c1,1.3,2,2.6,2.4,4.2c1.5,5.8,1.3,30.1,0.6,36.4c-0.3,2.8-1,5.3-3.3,7.1c-2.1,1.7-4.9,2.1-7,3.6
	c-6.3,0.7-12.9,0.3-19.2,0.3l-33.7,0c-28,0-56.1,0.9-84.1,0.4c-5-2.2-8-3.5-10.4-8.7c0.3-3.3,0-6.8-0.1-10l0-5.3l0-11.6l0-4.6l0-6.5
	c0.6-1.2,1.3-2.5,2.2-3.5c5.8-7.2,27.5-3.6,36.7-4.5C208.5,291.6,208.7,291.6,208.9,291.6z"/>
<linearGradient id="SVGID_1_" gradientUnits="userSpaceOnUse" x1="247.2469" y1="673.3762" x2="252.2377" y2="733.4986" gradientTransform="matrix(1 0 0 -1 0 1024)">
	<stop  offset="0" style="stop-color:#4CACE2"/>
	<stop  offset="1" style="stop-color:#6AC5E8"/>
</linearGradient>
<path fill="url(#SVGID_1_)" d="M324.3,294.3c1,1.3,2,2.6,2.4,4.2c1.5,5.8,1.3,30.1,0.6,36.4c-0.3,2.8-1,5.3-3.3,7.1
	c-2.1,1.7-4.9,2.1-7,3.6c-6.3,0.7-12.9,0.3-19.2,0.3l-33.7,0c-28,0-56.1,0.9-84.1,0.4c-5-2.2-8-3.5-10.4-8.7c0.6,0.2,1.3,0.3,2,0.4
	c5.4,0.9,11.5,0.4,16.9,0.4l30.4,0l63.7,0c11.2,0,22.5,0.3,33.7-0.1c1.7-0.1,3.4,0.1,4.8-1c2.1-3,1.5-6.5,1.4-10
	c-42.9-0.3-85.9,0.9-128.7-0.1c7.9-1.4,24.5-0.5,33.2-0.5l73.4-0.1c4.3,0,17.8,0.8,21-0.3c1-1.4,0.6-2.5,0.6-4.2
	c0.1-3,1-8.7-0.3-11.3l0.3-0.2c0.8-1.4,0.5-2.9,0.5-4.5C322.2,301.8,322.6,298.7,324.3,294.3z"/>
<path fill="#85CEEC" d="M169.5,310.8c30.1,0.3,60.2,0.9,90.3,0.6c13.8-0.3,27.6-0.4,41.4-0.5c6.8,0,13.7-0.3,20.5,0.3
	c1.4,2.6,0.5,8.3,0.3,11.3c0,1.7,0.3,2.7-0.6,4.2c-3.2,1-16.7,0.2-21,0.3l-73.4,0.1c-8.7,0-25.3-1-33.2,0.5
	c-7.9,0.1-16.4-0.5-24.2,0.2l0-5.3L169.5,310.8z"/>
<path fill="#45AFE8" d="M169.5,322.4l152.5,0.1c0,1.7,0.3,2.7-0.6,4.2c-3.2,1-16.7,0.2-21,0.3l-73.4,0.1c-8.7,0-25.3-1-33.2,0.5
	c-7.9,0.1-16.4-0.5-24.2,0.2L169.5,322.4z"/>
<path fill="#85CEEC" d="M208.9,291.6c11-0.5,22-0.2,33-0.3c13-0.1,26.2-0.5,39.2,0.2c10.1,0.4,30.8-1.2,39.3,0.8
	c1.5,0.3,2.8,1.1,4.1,2c-1.7,4.3-2.1,7.5-1.9,12.2c0,1.6,0.3,3-0.5,4.5l-0.3,0.2c-6.8-0.5-13.7-0.3-20.5-0.3
	c-13.8,0.1-27.6,0.2-41.4,0.5c-30.1,0.3-60.2-0.3-90.3-0.6l0-4.6l0-6.5c0.6-1.2,1.3-2.5,2.2-3.5c5.8-7.2,27.5-3.6,36.7-4.5
	C208.5,291.6,208.7,291.6,208.9,291.6z"/>
<path fill="#45AFE8" d="M169.6,306.2c17.5,1.1,35.4,0.3,53,0.2c33.3-0.4,66.6-0.4,99.9,0.1c0,1.6,0.3,3-0.5,4.5l-0.3,0.2
	c-6.8-0.5-13.7-0.3-20.5-0.3c-13.8,0.1-27.6,0.2-41.4,0.5c-30.1,0.3-60.2-0.3-90.3-0.6L169.6,306.2z"/>
<path fill="#FEFEFD" d="M180.1,360.4l118.6,0.6c1.4,22.7-0.2,46-0.2,68.8c0,5.5,1,27.5,0.3,31.1c-0.8,3.8-3.6,7.8-6.2,10.8
	c-5.5,6.1-11.1,8.4-19.2,8.7c-12.8,0.6-25.8,0-38.6,0c-11,0-23.5,1.3-34.3-0.8c-4.4-0.9-8.5-2.7-11.8-5.8c-3.8-3.5-5.3-8.5-8.7-12.2
	l0-72.4C180.7,379.7,180.2,369.9,180.1,360.4z"/>
<path fill="#DB2C2C" d="M276,375.7c4.6,1,8.9,3.1,11.6,7.1c1.2,1.8,1.6,3.3,1.8,5.4c1.3,11.8,0.4,24.7,0.4,36.6
	c0,8.7,1.1,27-0.6,34.6c-0.7,3.2-3.7,6.4-6.5,8c-4,2.3-9.3,2.8-13.7,1.4c-3-1-5.8-3.2-7.3-6c0.8,0,1.6,0.3,2.4,0.4
	c3,0.6,5.3,0.8,8.3,0.7c1.3-0.7,2.7-1.5,3.8-2.5c1.8-1.5,3-3.8,3.4-6.1c0.8-5.2,0.4-10.7,0.4-16l0-28c0-7.5,0.8-20.3-0.1-27.2
	C279.5,381.1,275.7,378.1,276,375.7z"/>
<path fill="#DB2C2C" d="M224.8,375.5c4.4,2,8.6,4,10.4,8.8c1.6,4.3,1.2,62.2,0.7,70.3c-0.1,2.2-0.2,4.9-1.2,6.9
	c-1.7,3.5-5.4,6.1-9,7.2c-4,1.3-8.5,1-12.2-1.1c-2.3-1.3-4.2-3.3-5.5-5.6c3.5-0.3,6.9,1.2,10.6,0.5c2-0.4,4.2-1.8,5.3-3.5
	c1.3-2.3,1.8-5.8,2-8.4c0.9-10.5,0.2-21.5,0.2-32C226.1,407.3,227.4,386.2,224.8,375.5z"/>
<path fill="#EF6350" d="M208,462.1c-1-1.6-1.6-3-1.8-5c-1.2-10.4-0.2-24.7-0.2-35.6c0-11.1-1-24,0.3-35c0.4-3.7,1.9-6.4,4.9-8.6
	c4-3,8.8-3.3,13.6-2.5c2.6,10.6,1.3,31.8,1.3,43.1c0,10.5,0.7,21.6-0.2,32c-0.2,2.6-0.7,6.2-2,8.4c-1,1.8-3.3,3.1-5.3,3.5
	C214.9,463.4,211.5,461.8,208,462.1z"/>
<path fill="#EF6350" d="M261.7,462.8c-1.1-1.8-1.5-3.6-1.7-5.7c-0.9-9.5,0-19.4,0-28.9l-0.2-25.3c0-4.7-0.4-9.9,0.3-14.6
	c0.6-3.9,2.7-8.2,6-10.5c2.6-1.8,6.8-2.5,9.9-2c-0.3,2.4,3.5,5.4,4,8.4c1,6.9,0.1,19.7,0.1,27.2l0,28c0,5.2,0.4,10.8-0.4,16
	c-0.4,2.3-1.6,4.6-3.4,6.1c-1.1,0.9-2.5,1.7-3.8,2.5c-3,0.1-5.4-0.1-8.3-0.7C263.3,463,262.5,462.8,261.7,462.8z"/>
<path fill="#DB2C2C" d="M873.3,466.1c1.9-0.9,3.8-2,5.8-2.7c-0.9,38.8-1.6,77.6-1.9,116.4c-0.2,19.9,0.2,40.2-1.1,60.1
	c-12.1,6.9-25.3,12.7-37.8,18.9c-20.9,10.4-41.8,20.9-62.6,31.6c-12.3,6.3-26.1,12.2-37.4,20.2c-3.1,2.3-6,4.4-9.6,5.9
	c-2.5,1.9-6.6,2.7-9.7,2.5c-6.9-0.4-12-4.9-16.2-9.9c-3.3-5.8-5.6-12.3-8-18.5c-4-10.2-7.9-20.5-11.7-30.8
	c-8.7-23.2-17.7-46.3-26.8-69.3c-0.6-2.1-1.2-4.3-1.3-6.5c-0.1-4.6,1.1-8.5,4.4-11.8c0.4-0.5,0.9-1,1.4-1.4c0.5-0.4,1-0.9,1.5-1.3
	c0.5-0.4,1-0.8,1.6-1.2c0.5-0.4,1.1-0.7,1.7-1c0.6-0.3,1.2-0.6,1.7-0.9c0.6-0.3,1.2-0.5,1.8-0.7c0.6-0.2,1.2-0.4,1.9-0.6
	c0.6-0.2,1.3-0.3,1.9-0.4c4.6-0.8,8.7-0.1,12.5,2.7l1.8,4.1c6.7-3.9,13.4-7.6,20.2-11.3c8.2-3.4,16.3-8.9,24-13.3
	c12.5-7.1,24.9-14.2,37.2-21.4c4.2-3.9,14-8.5,19.3-11.5l56.8-32.4l-0.1-14.3c3.5-0.5,22.5-1.7,24.6,0.1c0.2,0.2,0.3,0.4,0.5,0.6
	L873.3,466.1z"/>
<path fill="#EF6350" d="M844.4,467c3.5-0.5,22.5-1.7,24.6,0.1c0.2,0.2,0.3,0.4,0.5,0.6l3.8-1.7c-0.4,1.9-0.5,5.2-1.7,6.6l-8,3.9
	c-9.2,4.5-18.4,9.2-27.2,14.4c-20.3,11.9-46.2,29.6-68.6,35.8l0.8-1l-0.2-0.5c4.2-3.9,14-8.5,19.3-11.5l56.8-32.4L844.4,467z"/>
<path fill="#336CAF" d="M844.4,467c3.5-0.5,22.5-1.7,24.6,0.1c0.2,0.2,0.3,0.4,0.5,0.6c-8.4,4.4-17.1,8.5-25,13.6L844.4,467z"/>
<path fill="#3B92D7" d="M659.2,572c0.4-0.5,0.9-1,1.4-1.4c0.5-0.4,1-0.9,1.5-1.3c0.5-0.4,1-0.8,1.6-1.2c0.5-0.4,1.1-0.7,1.7-1
	c0.6-0.3,1.2-0.6,1.7-0.9c0.6-0.3,1.2-0.5,1.8-0.7c0.6-0.2,1.2-0.4,1.9-0.6c0.6-0.2,1.3-0.3,1.9-0.4c4.6-0.8,8.7-0.1,12.5,2.7
	l1.8,4.1c7.5,22.5,16.6,44.4,25.2,66.5c8,20.5,15.5,41.2,23.7,61.7c1,3.7,1.9,7.2,2.4,11c-3.1,2.3-6,4.4-9.6,5.9
	c-2.5,1.9-6.6,2.7-9.7,2.5c-6.9-0.4-12-4.9-16.2-9.9c-3.3-5.8-5.6-12.3-8-18.5c-4-10.2-7.9-20.5-11.7-30.8
	c-8.7-23.2-17.7-46.3-26.8-69.3c-0.6-2.1-1.2-4.3-1.3-6.5C654.7,579.2,655.9,575.3,659.2,572z"/>
<path fill="#45AFE8" d="M659.2,572c0.4-0.5,0.9-1,1.4-1.4c0.5-0.4,1-0.9,1.5-1.3c0.5-0.4,1-0.8,1.6-1.2c0.5-0.4,1.1-0.7,1.7-1
	c0.6-0.3,1.2-0.6,1.7-0.9c0.6-0.3,1.2-0.5,1.8-0.7c0.6-0.2,1.2-0.4,1.9-0.6c0.6-0.2,1.3-0.3,1.9-0.4c4.6-0.8,8.7-0.1,12.5,2.7
	l1.8,4.1c7.5,22.5,16.6,44.4,25.2,66.5c8,20.5,15.5,41.2,23.7,61.7l-2.2,0.5c-8.7-9.5-32.5-75.6-38.5-91.1
	c-3.5-9.1-7.5-18.1-11.2-27.1c-2.1-5-4.1-9.8-9.5-11.9c-3.8-1.4-8.4-0.4-12,1.1c-0.8,0.4-1.6,0.7-2.5,0.9
	C659.6,571.9,659.4,572,659.2,572z"/>
<path fill="#A73022" d="M871.5,472.7c0.4,0.9,0.5,1.5,0.5,2.5c0.3,10-0.1,20-0.3,30l-0.7,49.3c-0.1,18-0.2,36-0.6,54
	c-0.1,9,0.1,18.1-0.4,27.1c-8.6,6.5-27.9,14.6-38.5,19.9L773,685.1c-10.8,5.4-21.9,10.3-32.6,16.1c-6-21.9-13-44-20.8-65.4
	c-2.7-7.3-6.1-14.3-8.6-21.6c14.8,19.2,33.2,32.4,57.7,35.6c21.9,2.8,44.6-4.6,61.8-18.1c19.4-15.2,29.5-37.5,32.3-61.6
	c1.2-10,0.6-20.4,0.6-30.5c0-21-0.6-42.1,0.1-63.1L871.5,472.7z"/>
<path fill="#F9C4A0" d="M344,561.2c5.7,3.7,11.3,7.5,17.3,10.7c3.1,1.2,6.2,2.5,9.3,3.5c-2.4,6.2-5,12.3-7.3,18.5
	c4.9-0.1,9.8-0.1,14.7,0l84.9-0.3c-4.4,2.5-9.3,4.9-13.2,8.2c-3.6,2.6-7,5.3-10.1,8.5c-6.2,6.4-11.6,13.9-17.1,20.8
	c-4.1,5.1-8.9,10-12.3,15.6c-1.6,2.7-2.9,5.6-3.4,8.8c-1.2,6.8,0.8,13.4,4.9,19c4.9,6.7,12.9,11.5,21.1,12.5c0.5,0.1,1,0.1,1.6,0.2
	c0.5,0,1.1,0.1,1.6,0.1c0.5,0,1.1,0,1.6,0c0.5,0,1.1,0,1.6-0.1c0.5,0,1.1-0.1,1.6-0.2c0.5-0.1,1-0.1,1.6-0.2c0.5-0.1,1-0.2,1.6-0.3
	c0.5-0.1,1-0.2,1.5-0.4c0.5-0.1,1-0.3,1.5-0.5c0.5-0.2,1-0.3,1.5-0.5c0.5-0.2,1-0.4,1.5-0.6c0.5-0.2,1-0.4,1.4-0.7
	c0.5-0.2,0.9-0.5,1.4-0.8c0.5-0.3,0.9-0.5,1.3-0.8c0.4-0.3,0.9-0.6,1.3-0.9c0.4-0.3,0.8-0.6,1.3-1c8.6-6.7,16.4-16.3,24.1-24.2
	c3.1-3.1,6.1-6.5,9.8-8.9c5.7-3.6,16.1-5.7,22.8-5c4,0.4,7.8,2,11.2,4.1c10,6.1,19.4,14.2,29,21l60.5,43.2
	c7.6,5.5,18.9,11.6,24.6,18.9c3.4,4.3,4.9,9.5,4.1,14.9c0,0.3-0.1,0.7-0.2,1c-0.1,0.3-0.1,0.7-0.2,1c-0.1,0.3-0.2,0.6-0.3,1
	c-0.1,0.3-0.2,0.6-0.3,1c-0.1,0.3-0.2,0.6-0.4,0.9c-0.1,0.3-0.3,0.6-0.4,0.9c-0.1,0.3-0.3,0.6-0.4,0.9c-0.2,0.3-0.3,0.6-0.5,0.9
	c-0.2,0.3-0.4,0.6-0.5,0.8c-0.2,0.3-0.4,0.5-0.6,0.8c-0.2,0.3-0.4,0.5-0.6,0.8c-0.2,0.3-0.4,0.5-0.7,0.8c-0.2,0.2-0.5,0.5-0.7,0.7
	c-0.2,0.2-0.5,0.5-0.7,0.7c-0.2,0.2-0.5,0.4-0.8,0.6c-0.3,0.2-0.5,0.4-0.8,0.6c-2.9,2.1-6.7,3.7-10.2,3.1c-2.4-0.4-4.9-1.8-6.9-3.1
	c-7.7-4.7-14.8-10.5-22.2-15.7c-18.7-12.9-37.2-26.1-55.6-39.4l-3.1,4.6c17.3,12.6,35,24.9,52.5,37.1c8.2,5.8,22.6,14.7,29.1,21.6
	c1.8,1.9,2.8,4.2,3.2,6.8c0.1,0.6,0.2,1.2,0.2,1.8c0,0.6,0,1.2,0,1.8c0,0.6-0.1,1.2-0.2,1.8s-0.2,1.2-0.3,1.8
	c-0.1,0.6-0.3,1.2-0.5,1.7c-0.2,0.6-0.4,1.1-0.7,1.7c-0.3,0.6-0.5,1.1-0.8,1.6c-0.3,0.5-0.6,1-1,1.5c-2.3,3.1-5.7,4.8-9.5,5.2
	c-2.1,0.2-4.2,0.2-6.3,0.3c-9.5-4.7-20.3-14.1-29.3-20.5c-11.7-8.2-23.3-16.5-34.8-24.8c-6.4-4.6-13.2-8.9-19.2-14l-2.7,5
	c5.1,3.4,9.9,7.1,14.8,10.6c12.6,8.8,25,17.6,37.4,26.7c5.4,3.9,14.5,9.6,18.8,13.9c1.5,1.6,2.5,3.6,3,5.8c0.9,4,0.2,7.7-2,11.1
	c-2.5,3.9-6.8,7.5-11.5,8.4c-5.4,1-9.6-2.9-13.7-5.8c-5.8-4.3-48.3-35.4-50.1-35.6l-1.3,2.2c-0.1-2-0.3-3.6-1.3-5.4
	c-2.2-4.2-6.1-7.5-10.8-8.7c-5-1.3-8.9,0-13.2,2.6c-1.4-1.6-2.3-3.1-3.2-5c1.1-5,1.6-10.8-0.3-15.7c-1.7-4.5-5.2-8.3-9.6-10.3
	c-5.8-2.5-11.1-1-16.7,1.1c-2.9,0.9-5.1,2.6-7.5,4.5c-1.3-4.1-2.8-7.6-5.9-10.8c-0.3-0.3-0.5-0.5-0.8-0.8c-0.3-0.3-0.6-0.5-0.8-0.7
	c-0.3-0.2-0.6-0.5-0.9-0.7c-0.3-0.2-0.6-0.4-0.9-0.6c-0.3-0.2-0.6-0.4-0.9-0.6c-0.3-0.2-0.6-0.4-1-0.6c-0.3-0.2-0.7-0.3-1-0.5
	c-0.3-0.2-0.7-0.3-1-0.5c-0.3-0.1-0.7-0.3-1-0.4c-0.3-0.1-0.7-0.2-1.1-0.4c-0.4-0.1-0.7-0.2-1.1-0.3c-0.4-0.1-0.7-0.2-1.1-0.2
	c-0.4-0.1-0.7-0.1-1.1-0.2c-0.4-0.1-0.7-0.1-1.1-0.1c-0.4,0-0.7-0.1-1.1-0.1c-0.4,0-0.7,0-1.1,0c-8,0-13.2,3.8-18.5,9.2
	c-0.4-4.5-1.7-8.8-4.7-12.3c-3.7-4.4-9.7-7.3-15.4-7.6c-0.9,0-1.7,0-2.6,0c-0.9,0.1-1.7,0.2-2.5,0.4c-0.8,0.2-1.6,0.4-2.4,0.8
	c-0.8,0.3-1.6,0.7-2.3,1.1c-7,3.9-16.9,15.9-23.2,21.8c-9.5-8.3-19.6-15.9-29.7-23.5c-4-3-7.9-6-11.7-9.2c-2.3,5-6.4,17.1-11.5,19
	c-1.5,0.6-2.8,0.2-4.1-0.5c-1.2-0.6-2.4-1.4-3.5-2.1c-4-2.5-15.1-6.8-17.4-10l0.3-1.8l2.2-4.9c5.1-10.1,9.5-20.4,14.1-30.7
	c5.5-12.1,11.2-24,16.5-36.2c4.2-7.5,7.5-15.6,11.1-23.4c6.4-13.7,13-27.3,18.6-41.3L344,561.2z"/>
<path fill="#D9B190" d="M363.4,593.9c4.9-0.1,9.8-0.1,14.7,0c-12.8,26.4-24.5,53.5-36.3,80.4l-10,22.7c-2,4.5-4.4,9-5.9,13.6
	c-4-3-7.9-6-11.7-9.2c2.6-8.7,8-18.1,11.8-26.4l24.7-54C354.9,612,359.8,603.3,363.4,593.9z"/>
<path fill="#4AC4D0" d="M344,561.2c5.7,3.7,11.3,7.5,17.3,10.7c3.1,1.2,6.2,2.5,9.3,3.5c-2.4,6.2-5,12.3-7.3,18.5
	c-3.6,9.4-8.5,18.1-12.7,27.2l-24.7,54c-3.8,8.3-9.2,17.7-11.8,26.4c-2.3,5-6.4,17.1-11.5,19c-1.5,0.6-2.8,0.2-4.1-0.5
	c-1.2-0.6-2.4-1.4-3.5-2.1c-4-2.5-15.1-6.8-17.4-10l0.3-1.8l2.2-4.9c5.1-10.1,9.5-20.4,14.1-30.7c5.5-12.1,11.2-24,16.5-36.2
	c4.2-7.5,7.5-15.6,11.1-23.4c6.4-13.7,13-27.3,18.6-41.3L344,561.2z"/>
<path fill="#85CEEC" d="M361.3,571.9c3.1,1.2,6.2,2.5,9.3,3.5c-2.4,6.2-5,12.3-7.3,18.5c-3.6,9.4-8.5,18.1-12.7,27.2l-24.7,54
	c-3.8,8.3-9.2,17.7-11.8,26.4c-2.3,5-6.4,17.1-11.5,19c-1.5,0.6-2.8,0.2-4.1-0.5c-1.2-0.6-2.4-1.4-3.5-2.1c3.4-8.6,8.2-16.9,12-25.3
	l36-78C348.8,602.5,357.9,584.5,361.3,571.9z"/>
<path fill="#FEFEFD" d="M301.4,256.6c0.1-9.6-1.3-21.5,0.7-30.7c1.1-5.3,4-9.3,8.6-12.2c5.8-3.6,14.3-6.6,20.7-9.6l58.9-26.6
	l74.5-34.6c10.3-4.7,22.2-11.5,32.9-14.6c8-2.4,18.1-2.4,26.2-0.4c7.8,1.9,15.3,6.1,22.6,9.5c13.7,6.3,27.4,13,41.2,19.2l82.9,37.4
	c14.4,6.5,32.8,13.8,46.3,21.4c2.9,1.6,4.5,3.9,6.1,6.7c0.1,4,0,8,0,11.9c9.1,5.7,14.1,14.5,19.8,23.3c-2,4-3.8,8.2-5.3,12.4
	c-1.5,4.3-2.7,8.6-3.6,13c-0.5,3.1-0.9,6.1-0.9,9.2l5.8,0.1l25.9,0c4.6,0,9.5,0.3,14.1-0.2l1.5,0.2l34.5,0l8.8,0
	c6.7,0,23.8-1.7,28.5,2.9c1.1,1.1,1.8,2.5,2.5,3.9c0.5,3.5,0.3,7.1,0.3,10.7c0,4.3,0.1,8.6-0.1,12.9c0,3.8,0.3,7.7,0,11.5
	c0,2.1,0.1,4.3-1.4,5.9c-2.1,2.4-6.3,1.9-9.2,1.8c0,5.9,0.2,12.1-0.2,17.9c-0.2,35.9-0.1,71.7,0.2,107.6l0.1,14.3l-56.8,32.4
	c-5.3,3-15.1,7.6-19.3,11.5c-12.4,7.2-24.8,14.4-37.2,21.4c-7.7,4.4-15.8,9.9-24,13.3c-6.8,3.7-13.5,7.4-20.2,11.3l-1.8-4.1
	c-3.8-2.8-7.9-3.5-12.5-2.7c-0.6,0.1-1.3,0.3-1.9,0.4c-0.6,0.2-1.3,0.4-1.9,0.6c-0.6,0.2-1.2,0.5-1.8,0.7c-0.6,0.3-1.2,0.6-1.7,0.9
	c-0.6,0.3-1.1,0.7-1.7,1c-0.5,0.4-1.1,0.8-1.6,1.2c-0.5,0.4-1,0.8-1.5,1.3c-0.5,0.5-0.9,0.9-1.4,1.4c-3.3,3.3-4.5,7.2-4.4,11.8
	c0,2.2,0.7,4.4,1.3,6.5c-16.3,0.4-32.6,0.3-48.9,0.3c-7,0-14.9,0.8-21.7-0.3c-9.7-1.6-21.5-10.7-32-13.6c-4.8-1.3-10.1-2.4-15.1-2
	c-11.5,1-26.6,6-38.2,8.9c-12.3,3.1-25.5,5.3-37.3,10.1l-84.9,0.3c-4.9,0-9.8,0-14.7,0c2.3-6.2,4.8-12.3,7.3-18.5
	c-3.2-1-6.3-2.3-9.3-3.5c-6-3.2-11.6-7-17.3-10.7l-3.4,8.5c-1.9-2.8-19.6-11-23.6-13.1c0.5-70.3,0.5-140.6,0-210.9
	c2.1-1.5,4.9-1.9,7-3.6c2.3-1.8,3-4.4,3.3-7.1c0.7-6.4,0.9-30.7-0.6-36.4c-0.4-1.6-1.4-2.9-2.4-4.2c-1.3-0.9-2.5-1.7-4.1-2
	c-8.5-1.9-29.2-0.4-39.3-0.8c0.2-3,0.1-6.1,0.2-9.1l6.4,0l13.7,0C301.6,273.9,301.4,265.3,301.4,256.6z"/>
<path fill="#A73022" d="M564.6,227.5c14.6,12.7,23.9,32.9,25.4,52.1c1.5,19.5-5.6,39.8-18.3,54.6c-13.3,15.3-33.4,25.6-53.6,26.9
	c-21.4,1.4-41.8-4.7-57.9-19c-6.8-6-13.4-13.6-17-22c6.2,3.1,12.8,9.9,19,13.8c17.6,10.9,37.6,14.5,57.9,9.6
	c19.2-4.6,36.1-18.3,46.2-35.1c0.5-0.8,0.9-1.5,1.3-2.3c0.4-0.8,0.8-1.6,1.2-2.4c0.4-0.8,0.8-1.6,1.1-2.4s0.7-1.6,1.1-2.5
	c0.3-0.8,0.7-1.7,1-2.5c0.3-0.8,0.6-1.7,0.9-2.5c0.3-0.8,0.5-1.7,0.8-2.6c0.2-0.9,0.5-1.7,0.7-2.6c0.2-0.9,0.4-1.7,0.6-2.6
	c0.2-0.9,0.4-1.7,0.5-2.6c0.2-0.9,0.3-1.8,0.4-2.6c0.1-0.9,0.2-1.8,0.3-2.7c0.1-0.9,0.2-1.8,0.2-2.7c0.1-0.9,0.1-1.8,0.1-2.7
	c0-0.9,0-1.8,0-2.7c0-0.9,0-1.8-0.1-2.7c-0.1-1.9,0.1-4.6-0.4-6.4c-1.5-4.8-0.6-9.6-2.8-14.4l-0.3,0.8c1,5.6,2,13,0.6,18.5
	c0.1-7.8,0-15.3-2-22.9c-1.2-4.3-7.1-11.3-7.1-14.9C564.6,228,564.6,227.7,564.6,227.5z"/>
<path fill="#3BA96F" d="M628.2,362.1l30.3,47.8c9.4,14.8,22,30.1,26.6,47.2c3.7,13.8,2.6,32.1-0.6,45.9
	c-3.2,13.7-10.3,27.6-22.7,35.1c-10.5,6.4-23.6,9.1-35.7,10.3l-0.4-34c4-1.3,9.1-2.4,12.4-4.9c3.2-2.5,3.4-5.3,3.8-9
	c0.8-2.2,2.2-4.2,3-6.5c3.3-9.3,3.5-21,2.3-30.7c-1.5-9.2-3.2-18.5-4.9-27.7C640.3,425.8,626.4,366.3,628.2,362.1z"/>
<path fill="#79BF55" d="M620.7,349.4c2.4,4.3,5.1,8.5,7.6,12.8c-1.8,4.1,12.1,63.6,14.1,73.6c1.7,9.2,3.4,18.4,4.9,27.7
	c1.2,9.7,1,21.4-2.3,30.7c-0.8,2.3-2.3,4.3-3,6.5c-0.4,3.7-0.6,6.6-3.8,9c-3.3,2.5-8.5,3.6-12.4,4.9l0.4,34
	c-2.7-0.2-5.4-0.2-8.1-0.3c-6.4-0.2-13.1-2.2-19.2-4.3c-3.6-2.1-7.4-3.7-11-5.9c-6.7-4.1-12.5-9.5-18.4-14.7
	c-2.7-2.7-4.8-5.9-6.9-9.2c-0.9-1.3-1.7-2.7-2.6-4c-9.2-15.7-10.5-36.9-4.9-54c1.5-4.8,4.6-9.4,5.7-14.2c0.1-0.3,0.1-0.5,0.2-0.8
	l3.3-5.3c3.3-3.1,6.4-9,8.7-12.8l3.3-5.1c1.8-2.5,3.4-5.1,5-7.8C594.8,390,607.1,369.3,620.7,349.4z"/>
<path fill="#336CAF" d="M618.5,509.5c0-7.4-1-49.8,1.5-53.4c1.4-0.9,2.9-0.8,4.5-0.8c2.9,5.8,0.8,44.7,1.5,54.8
	c6.4-1.5,11.5-4.6,16-9.5c-0.4,3.7-0.6,6.6-3.8,9c-3.3,2.5-8.5,3.6-12.4,4.9l0.4,34c-2.7-0.2-5.4-0.2-8.1-0.3
	c0.4-11,0.4-22.1,0.5-33.1c-8.2-2.6-20.1-9-24.2-16.9c-0.7-1.4-0.3-1.8,0.1-3.1c5.1,1.4,8,6.2,12.2,9
	C610.2,506.5,614.2,508,618.5,509.5z"/>
<path fill="#FEFEFD" d="M440.2,410.8c17.4-14.9,37.1-23.9,59.9-26.3c30.1-3.1,57.7,6.6,81,25.4c-1.6,2.7-3.3,5.2-5,7.8l-3.3,5.1
	c-2.3,3.9-5.4,9.8-8.7,12.8l-3.3,5.3c-0.1,0.3-0.1,0.5-0.2,0.8c-1.1,4.8-4.1,9.5-5.7,14.2c-5.6,17.2-4.3,38.3,4.9,54
	c0.8,1.4,1.7,2.7,2.6,4c2.1,3.2,4.2,6.4,6.9,9.2c-10.8,0.3-21.7-0.1-32.5,0c-26.4,0.2-52.8,0.3-79.2,0.2c2.4-2.8,4.1-6.1,5.8-9.4
	c2.3-4.1,4.2-8.5,5.7-12.9c6-17.7,2.1-30.8-5.8-46.9c-2.1-3.8-4.2-7.5-5.8-11.5C453.5,438.2,443.7,417.3,440.2,410.8z"/>
<path fill="#45AFE8" d="M564.4,417.6c2.9,1.5,5.7,3.4,8.4,5.2c-2.3,3.9-5.4,9.8-8.7,12.8C564.5,429.6,564.4,423.6,564.4,417.6z"/>
<path fill="#45AFE8" d="M541.9,407.2c6.6,2.3,12.7,4.7,18.4,8.7c0,8.1-0.8,17.1,0.5,25.1c-0.1,0.3-0.1,0.5-0.2,0.8
	c-1.1,4.8-4.1,9.5-5.7,14.2c-5.6,17.2-4.3,38.3,4.9,54c0.8,1.4,1.7,2.7,2.6,4l-20.9,0.1L541.9,407.2z"/>
<path fill="#45AFE8" d="M440.2,410.8c17.4-14.9,37.1-23.9,59.9-26.3c30.1-3.1,57.7,6.6,81,25.4c-1.6,2.7-3.3,5.2-5,7.8
	c-7.1-4.3-13.9-9.2-21.2-13.1c-20.8-10.8-44.7-13.2-67.4-7.7c-12,2.9-22.8,8.6-33.7,14.4c0,2.5-0.4,5.8,0.5,8.1
	c1.2-0.5,1.6-0.9,2.5-1.8l0.5,0.3c1.3,7.7,0.2,16.9,0.3,24.8C453.5,438.2,443.7,417.3,440.2,410.8z"/>
<path fill="#45AFE8" d="M464,413.9c3.1-1.8,6.3-3.4,9.6-4.8c3.3-1.4,6.6-2.7,10-3.7l0.4,109l-20.5-0.3c2.3-4.1,4.2-8.5,5.7-12.9
	c6-17.7,2.1-30.8-5.8-46.9C465,446.4,463.9,423.3,464,413.9z"/>
<path fill="#45AFE8" d="M516,401.9c6.8,0.1,13.9,2,20.4,3.7l-0.2,108.7l-20.5,0.1L516,401.9z"/>
<path fill="#45AFE8" d="M510.1,401.7l0.3,0.1c1.2,2.1,0.2,103.3,0.2,112.5l-19.9,0c-1.2-0.2-0.7,0.1-1.5-0.8
	c-0.6-3.9-0.1-7.8-0.1-11.7l0-24.4l0-45.3c0-9.2-0.3-18.5,0.2-27.7C496.2,402.8,503,402,510.1,401.7z"/>
<path fill="#DB2C2C" d="M443.1,320.1c-3.6-4.2-7.8-21.9-8.6-27.8c-0.6-4.7-0.8-9.4-0.5-14.1c0.1-1.3,0.2-2.6,0.4-3.9
	c0.2-1.3,0.4-2.6,0.6-3.9c0.2-1.3,0.5-2.6,0.8-3.8c0.3-1.3,0.6-2.5,1-3.8c0.4-1.3,0.7-2.5,1.1-3.8c0.4-1.2,0.9-2.5,1.3-3.7
	c0.5-1.2,1-2.4,1.5-3.6c0.5-1.2,1.1-2.4,1.7-3.5c0.6-1.2,1.2-2.3,1.8-3.5c0.6-1.1,1.3-2.3,2-3.4c0.7-1.1,1.4-2.2,2.2-3.3
	c0.8-1.1,1.5-2.1,2.3-3.2c0.8-1,1.6-2,2.5-3c0.8-1,1.7-2,2.6-2.9c0.9-0.9,1.8-1.9,2.8-2.8c0.9-0.9,1.9-1.8,2.9-2.6
	c15.3-13.2,36.4-19.6,56.5-18c15,1.2,36.7,10.3,46.6,21.9c0,0.2,0,0.5,0,0.7c0,3.7,5.9,10.6,7.1,14.9c2,7.6,2.1,15.1,2,22.9
	c1.4-5.5,0.4-12.9-0.6-18.5l0.3-0.8c2.2,4.8,1.3,9.5,2.8,14.4c0.6,1.8,0.3,4.5,0.4,6.4c0,0.9,0.1,1.8,0.1,2.7c0,0.9,0,1.8,0,2.7
	c0,0.9-0.1,1.8-0.1,2.7c-0.1,0.9-0.1,1.8-0.2,2.7c-0.1,0.9-0.2,1.8-0.3,2.7c-0.1,0.9-0.3,1.8-0.4,2.6c-0.2,0.9-0.3,1.8-0.5,2.6
	c-0.2,0.9-0.4,1.7-0.6,2.6c-0.2,0.9-0.5,1.7-0.7,2.6c-0.2,0.9-0.5,1.7-0.8,2.6c-0.3,0.8-0.6,1.7-0.9,2.5c-0.3,0.8-0.6,1.7-1,2.5
	c-0.3,0.8-0.7,1.6-1.1,2.5s-0.8,1.6-1.1,2.4c-0.4,0.8-0.8,1.6-1.2,2.4c-0.4,0.8-0.9,1.6-1.3,2.3c-10.1,16.7-27,30.4-46.2,35.1
	c-20.3,4.9-40.3,1.3-57.9-9.6C455.9,330,449.3,323.2,443.1,320.1z"/>
<path fill="#A73022" d="M524.8,247c3.2,0.7,5.9,4.4,8,6.7c0,4.9,0.3,9.8,0.5,14.8c1,0.1,1.8,0.1,2.8-0.1c2.6-0.4,6.7,0.5,9.2,1.4
	l-0.6,0.5c-6.1-1.5-12.9-0.8-19.2-0.7C525.6,262.5,526.5,253.8,524.8,247z"/>
<path fill="#DDD8D2" d="M550.4,273.7c2.5,3,4.5,6.5,4.2,10.6c-0.2,3.4-2.2,6.9-4.8,9c-6,4.8-17,3.3-24.3,3.2
	c0.1,7.1,2.1,19.9-3.1,25.4c-2.1,2.2-4.7,3-7.5,3.7c4.1-12.9,3.1-24.9,3.2-38.4c8.2,0,16.5,0,24.7-0.2c0.7-0.5,1.5-0.9,2.2-1.5
	C549.1,282.4,549.8,278.5,550.4,273.7z"/>
<path fill="#FEFEFD" d="M497.7,269c0.1-7.5-1.8-18,1.7-24.8c1.7-3.2,4.6-5.4,8.1-6.4c4.3-1.2,8,0,11.8,2.2c2.4,2,4,4.3,5.5,7
	c1.7,6.8,0.8,15.5,0.7,22.6c6.3-0.1,13.1-0.8,19.2,0.7c2,1,3.9,2,5.7,3.5c-0.6,4.8-1.3,8.6-5.4,11.7c-0.7,0.5-1.4,1-2.2,1.5
	c-8.2,0.1-16.5,0.2-24.7,0.2c-0.1,13.4,0.8,25.4-3.2,38.4l-1.9,0.1c-4.2,0.2-8.5-0.3-11.7-3.4c-3.8-3.7-3.8-8.4-3.8-13.3l-0.5,1.8
	c-1.6,1.4-4.6,1-6.6,1c-5.2-2.5-10.3-6-13.9-10.6c-1.8-2.2-3.3-4.2-2.9-7.1c-3.2-3.5-5.5-7-5.7-11.9c-0.1-3.2,0.7-6.1,3-8.4
	C477.4,267.1,489.3,268.9,497.7,269z"/>
<path fill="#DDD8D2" d="M519.3,240c2.4,2,4,4.3,5.5,7c1.7,6.8,0.8,15.5,0.7,22.6L517,270c0.3-8-0.7-16-0.4-23.9
	C516.8,243.3,517.2,241.9,519.3,240z"/>
<path fill="#A73022" d="M473.6,294.1c6.5,3.8,16.6,2.7,23.9,2.1l0,12.7l-0.5,1.8c-1.6,1.4-4.6,1-6.6,1c-5.2-2.5-10.3-6-13.9-10.6
	C474.7,299,473.2,297,473.6,294.1z"/>
<path fill="#79BF55" d="M403.6,349.5c1.1,1.4,1.9,2.9,2.8,4.5c7.1,11.6,14.1,23.3,21,35c4.3,7.2,8.9,14.4,12.8,21.8
	c3.5,6.5,13.3,27.4,17.3,31.9c1.6,4,3.7,7.7,5.8,11.5c7.9,16.1,11.8,29.2,5.8,46.9c-1.5,4.5-3.4,8.8-5.7,12.9
	c-1.7,3.3-3.4,6.5-5.8,9.4c-11.7,10.9-15.3,14.6-29.9,21.9c-5.7,1.7-11.3,3.1-17.2,3.9l-0.1,0.3l-8.5,0.5l-0.3,0.1
	c-2.4-0.7-5.1-0.8-7.6-1.2c-7.3-1.3-14.6-3.3-21-7.2c-15.4-9.4-27.6-27.2-31.8-44.6c-2.7-11.2-3.2-24.8-0.2-36
	c4.1-15.5,20.1-40.1,28.6-54.6C380.8,387.3,392.1,368.3,403.6,349.5z"/>
<linearGradient id="SVGID_00000143602786479485786770000007963851725156535457_" gradientUnits="userSpaceOnUse" x1="380.6718" y1="514.7156" x2="426.4196" y2="515.6105" gradientTransform="matrix(1 0 0 -1 0 1024)">
	<stop  offset="0" style="stop-color:#086C81"/>
	<stop  offset="1" style="stop-color:#04569C"/>
</linearGradient>
<path fill="url(#SVGID_00000143602786479485786770000007963851725156535457_)" d="M402.5,517.5c0-6.8-1.1-44.5,1-47.6
	c0.8-1.2,1.9-1.9,3.2-2.2c0.7,0.1,0.8,0.1,1.4,0.6c1.6,1.5,2.2,4.3,2.5,6.4c0.6,4.7,0.3,9.8,0.3,14.6c-0.1,9.2-0.1,18.5,0.1,27.7
	c6.2-1.1,10.7-3.2,16-6.5c1.1,1.1,1,1.3,1.2,2.9c-1.4,4-6.4,6.6-10.1,8.3c-2.3,1-4.6,1.9-7,2.5c-0.1,8.3,0,16.6-0.4,24.9l-0.1,0.3
	l-8.5,0.5c0-8.4-0.3-17,0.4-25.4c-5.5-1.2-10.7-3.1-14.8-7.1c-7.6-7.4-7.8-16.9-7.9-26.8c2,5,2.9,10.3,5.6,15.1
	C389.3,512.7,395.1,515.4,402.5,517.5z"/>
<path fill="#3BA96F" d="M406.4,354c7.1,11.6,14.1,23.3,21,35c4.3,7.2,8.9,14.4,12.8,21.8c3.5,6.5,13.3,27.4,17.3,31.9
	c1.6,4,3.7,7.7,5.8,11.5c7.9,16.1,11.8,29.2,5.8,46.9c-1.5,4.5-3.4,8.8-5.7,12.9c-1.7,3.3-3.4,6.5-5.8,9.4
	c-11.7,10.9-15.3,14.6-29.9,21.9c-5.7,1.7-11.3,3.1-17.2,3.9c0.4-8.3,0.3-16.6,0.4-24.9c2.4-0.7,4.7-1.5,7-2.5
	c3.7-1.7,8.7-4.3,10.1-8.3c-0.2-1.6-0.1-1.8-1.2-2.9c2.9-2.8,5.6-7.6,7.4-11.2c14.3-27.5-2.8-56.9-12.2-83.1
	c-5.1-14.1-9-28.5-12.6-43C408,367.6,404.8,359.6,406.4,354z"/>
<path fill="#064984" d="M301.4,256.6c0.1-9.6-1.3-21.5,0.7-30.7c1.1-5.3,4-9.3,8.6-12.2c5.8-3.6,14.3-6.6,20.7-9.6l58.9-26.6
	l74.5-34.6c10.3-4.7,22.2-11.5,32.9-14.6c8-2.4,18.1-2.4,26.2-0.4c7.8,1.9,15.3,6.1,22.6,9.5c13.7,6.3,27.4,13,41.2,19.2l82.9,37.4
	c14.4,6.5,32.8,13.8,46.3,21.4c2.9,1.6,4.5,3.9,6.1,6.7c0.1,4,0,8,0,11.9c9.1,5.7,14.1,14.5,19.8,23.3c-2,4-3.8,8.2-5.3,12.4
	c-1.5,4.3-2.7,8.6-3.6,13c-0.5,3.1-0.9,6.1-0.9,9.2c-6.9,0-30-1.6-34.4,2.4c-2.4,2.1-1.7,7.8-1.7,10.7l0.1,4.9l0,11.4
	c0,5.3-0.6,11.3,0.3,16.6c2.8,3,5.4,3.3,9.3,3.9c0.3,0.5,0.5,0.8,0.6,1.4c0.2,5.3,0.2,10.6,0.2,16c0.1,39,0.8,78.3,0,117.3
	c-0.5,25.9,0,51.9-0.1,77.8l-3.4,2.3c-2.6,1.1-5.1,2.8-7.6,4.2l0.5-211.6c-2.8-1-5.6-3-7.3-5.5c-1.1-1.6-1.8-3.6-2.1-5.5
	c-0.8-5.7-0.6-39.9,0.4-45c-1.5-7-0.6-19.5-0.6-26.9c0.2-17.5,0.1-34.9-0.1-52.4c-33.1-15.6-66.8-30-99.9-45.5l-40.1-18.5
	c-8.7-4-17.6-9.4-26.9-11.7c-7.8-1.9-15.6-1-23.1,1.8c-7.2,2.6-14.2,6.4-21.2,9.6c-14.8,6.7-29.6,13.6-44.3,20.5l-73,33.4
	c-9.8,4.4-36.4,14.8-43.6,21c-3.3,7.5-2,46.7-2,57.3c7,0.5,15.2,0.5,20,6.4c1.7,2,3.2,4.6,3.8,7.2c1.3,5.9,1,35.4,0.3,42.2
	c-0.5,5-2.9,8.3-6.8,11.4c-1,0.8-2.1,1.5-3.2,2.3c-0.4,68.4-0.3,136.8,0.4,205.1c2.3,1.2,5.1,3.2,7.8,2.7c3.4-2,2.2-7,7.1-7.7
	c3.9,1.3,35.1,17.7,36.3,19.7c1,1.9,0.5,5-0.4,6.8c-1.1,2-2.7,4-4.1,5.8l27.5,0.1c0-11.3,0-22.7,0.1-34l0.3-0.1l8.5-0.5l0.1-0.3
	c5.9-0.8,11.5-2.2,17.2-3.9c14.6-7.3,18.2-11,29.9-21.9c26.4,0.1,52.8,0,79.2-0.2c10.8-0.1,21.7,0.3,32.5,0
	c5.9,5.2,11.7,10.5,18.4,14.7c3.6,2.2,7.4,3.8,11,5.9c6,2.1,12.8,4.1,19.2,4.3c2.7,0.1,5.4,0.1,8.1,0.3l-0.1,34.8
	c7.1-0.4,14.3-0.1,21.4-0.1c0.5-6.6,2-11.6,6.5-16.7c5.1-5.8,13.6-10.3,21.3-10.5c6.9-0.2,12,3,16.8,7.6c-2.3,1.3-4.6,2.5-7,3.6
	c-3.8-2.8-7.9-3.5-12.5-2.7c-0.6,0.1-1.3,0.3-1.9,0.4c-0.6,0.2-1.3,0.4-1.9,0.6c-0.6,0.2-1.2,0.5-1.8,0.7c-0.6,0.3-1.2,0.6-1.7,0.9
	c-0.6,0.3-1.1,0.7-1.7,1c-0.5,0.4-1.1,0.8-1.6,1.2c-0.5,0.4-1,0.8-1.5,1.3c-0.5,0.5-0.9,0.9-1.4,1.4c-3.3,3.3-4.5,7.2-4.4,11.8
	c0,2.2,0.7,4.4,1.3,6.5c-16.3,0.4-32.6,0.3-48.9,0.3c-7,0-14.9,0.8-21.7-0.3c-9.7-1.6-21.5-10.7-32-13.6c-4.8-1.3-10.1-2.4-15.1-2
	c-11.5,1-26.6,6-38.2,8.9c-12.3,3.1-25.5,5.3-37.3,10.1l-84.9,0.3c-4.9,0-9.8,0-14.7,0c2.3-6.2,4.8-12.3,7.3-18.5
	c-3.2-1-6.3-2.3-9.3-3.5c-6-3.2-11.6-7-17.3-10.7l-3.4,8.5c-1.9-2.8-19.6-11-23.6-13.1c0.5-70.3,0.5-140.6,0-210.9
	c2.1-1.5,4.9-1.9,7-3.6c2.3-1.8,3-4.4,3.3-7.1c0.7-6.4,0.9-30.7-0.6-36.4c-0.4-1.6-1.4-2.9-2.4-4.2c-1.3-0.9-2.5-1.7-4.1-2
	c-8.5-1.9-29.2-0.4-39.3-0.8c0.2-3,0.1-6.1,0.2-9.1l6.4,0l13.7,0C301.6,273.9,301.4,265.3,301.4,256.6z"/>
<path fill="#13A0B4" d="M723,234c9.1,5.7,14.1,14.5,19.8,23.3c-2,4-3.8,8.2-5.3,12.4c-1.5,4.3-2.7,8.6-3.6,13
	c-3.6,0-7.3,0.2-10.9,0.3C722.8,266.7,722.8,250.4,723,234z"/>
<path fill="#DDD8D2" d="M687.2,214.1c8,3.8,16,7.6,24.3,10.9l0.2,58.1c-6.8,0-14.3-0.9-19.6,4.3c-1.8,1.7-3,3.9-4.1,6.1
	c-1.5-7-0.6-19.5-0.6-26.9C687.5,249,687.4,231.6,687.2,214.1z"/>
<path fill="#D2E7E8" d="M457.6,523.4c26.4,0.1,52.8,0,79.2-0.2c10.8-0.1,21.7,0.3,32.5,0c5.9,5.2,11.7,10.5,18.4,14.7
	c3.6,2.2,7.4,3.8,11,5.9c6,2.1,12.8,4.1,19.2,4.3c2.7,0.1,5.4,0.1,8.1,0.3l-0.1,34.8c-2.8,0.2-5.7,0.1-8.5,0
	c-9.7-0.1-19.5-0.1-29.2,0.1c-14.3-10.1-35-18.7-52.7-15.6c-6.8,1.2-13.4,3.3-20.1,4.9c-15.4,3.8-33.9,8.5-49.4,11
	c-10.9,1.8-22.9,0.9-34,0.8c-7.1,0-14.5,0.5-21.5-0.1l-9.1-0.2c0-11.3,0-22.7,0.1-34l0.3-0.1l8.5-0.5l0.1-0.3
	c5.9-0.8,11.5-2.2,17.2-3.9C442.4,538,446,534.2,457.6,523.4z"/>
<path fill="#EF6350" d="M617.9,548.1c2.7,0.1,5.4,0.1,8.1,0.3l-0.1,34.8c-2.8,0.2-5.7,0.1-8.5,0
	C617.7,571.5,617.6,559.8,617.9,548.1z"/>
<path fill="#EF6350" d="M402,549.9l8.5-0.5c0,11.6-0.1,23.3,0.2,34.9l-9.1-0.2c0-11.3,0-22.7,0.1-34L402,549.9z"/>
<path fill="#45AFE8" d="M457.6,523.4c26.4,0.1,52.8,0,79.2-0.2c10.8-0.1,21.7,0.3,32.5,0c5.9,5.2,11.7,10.5,18.4,14.7
	c3.6,2.2,7.4,3.8,11,5.9c-3.7,1-7.4,1.2-11.3,1.4c-12.7,0.6-25.6,0.4-38.4,0.4l-68.7,0.2c-12.2,0.1-24.3,0.1-36.5,0
	c-5.2-0.1-11,0.4-16.1-0.6C442.4,538,446,534.2,457.6,523.4z"/>
<path fill="#FEFEFD" d="M733,292l5.8,0.1l25.9,0c4.6,0,9.5,0.3,14.1-0.2l1.5,0.2l34.5,0l8.8,0c6.7,0,23.8-1.7,28.5,2.9
	c1.1,1.1,1.8,2.5,2.5,3.9c0.5,3.5,0.3,7.1,0.3,10.7c0,4.3,0.1,8.6-0.1,12.9c0,3.8,0.3,7.7,0,11.5c0,2.1,0.1,4.3-1.4,5.9
	c-2.1,2.4-6.3,1.9-9.2,1.8c0,5.9,0.2,12.1-0.2,17.9c-0.2,35.9-0.1,71.7,0.2,107.6l0.1,14.3l-56.8,32.4c-5.3,3-15.1,7.6-19.3,11.5
	c-12.4,7.2-24.8,14.4-37.2,21.4c-7.7,4.4-15.8,9.9-24,13.3l0-0.3l-0.6-0.2c-5.8,2.7-13.7,6.3-18.6,10.3c-0.1,0.1-0.2,0.2-0.3,0.3
	l-0.6-0.5l0-1.1c3.2-4.9,12.2-7.6,17.2-11l-0.2-0.8l3.4-2.3c0.1-25.9-0.4-51.9,0.1-77.8c0.9-39,0.1-78.3,0-117.3
	c0.1-5.3,0-10.6-0.2-16c-0.1-0.6-0.3-0.9-0.6-1.4c-3.9-0.6-6.6-0.9-9.3-3.9c-0.9-5.3-0.3-11.2-0.3-16.6l0-11.4l-0.1-4.9
	c0-2.9-0.7-8.6,1.7-10.7C703.1,290.4,726.1,292,733,292z"/>
<path fill="#F4BE41" d="M734.7,458.4c-1.2-4.7-1.1-57.5-0.2-64c0.7-4.9,2.8-9.1,6.9-12.1c3.1-2.2,7-3.3,10.8-2.6
	c3.5,0.6,6.4,2.6,8.4,5.5c1.7,2.5,2.3,5,2.7,8c1,7.7,1.2,58.7-0.2,65.4c-0.8,3.7-2.4,6.9-5.7,9c-3.6,2.3-8.3,2.7-12.3,1.7
	c-3.4-0.9-6.8-3-8.6-6.1C735.5,461.6,735.1,460,734.7,458.4z"/>
<path fill="#F1A449" d="M734.7,458.4l0.3-0.5c2.5-1.3,9.3-0.5,12.3-0.5c7.7-0.2,10.6-3.3,15.8-8.6c-0.1,3.3-0.1,6.6,0,9.8
	c-0.8,3.7-2.4,6.9-5.7,9c-3.6,2.3-8.3,2.7-12.3,1.7c-3.4-0.9-6.8-3-8.6-6.1C735.5,461.6,735.1,460,734.7,458.4z"/>
<path fill="#F1A449" d="M795.9,381c3.9-1.9,7.9-2.2,12-0.7c4.6,1.7,8.2,5.5,10,10c3,7.4,2.4,58.4,1.6,68.1
	c-1.9,4.5-4.4,8.3-9.1,10.3c-4.3,1.9-9,1.5-13.5,0.7c-3.9-2.7-6.5-5.6-8.6-9.9c-2.4-8.5-2.8-58.9-0.9-67.6
	C788.5,386.7,791.4,383.9,795.9,381z"/>
<path fill="#F4BE41" d="M788.2,459.6c-2.4-8.5-2.8-58.9-0.9-67.6c1.2-5.3,4.1-8.1,8.5-11c-2.5,24.7,0.8,49.8-1.1,74.6
	C792.6,457.1,790.6,458.6,788.2,459.6z"/>
<path fill="#DDD8D2" d="M843.9,358.2l0.2,1.3c-0.2,35.9-0.1,71.7,0.2,107.6l0.1,14.3l-56.8,32.4c-5.3,3-15.1,7.6-19.3,11.5
	c-12.4,7.2-24.8,14.4-37.2,21.4c-7.7,4.4-15.8,9.9-24,13.3l0-0.3l-0.6-0.2c-5.8,2.7-13.7,6.3-18.6,10.3c-0.1,0.1-0.2,0.2-0.3,0.3
	l-0.6-0.5l0-1.1c3.2-4.9,12.2-7.6,17.2-11l-0.2-0.8l3.4-2.3c0.1-25.9-0.4-51.9,0.1-77.8c33.3,0.6,66.7,0.5,100-0.2
	c-3.6-2-7.8-3.8-10.6-6.9c4.5,0.8,9.2,1.1,13.5-0.7c4.7-2,7.2-5.8,9.1-10.3c2.2-0.4,5-4.3,6.3-6c1.8-10.2,1-22.7,1.1-33.2
	c0.3-19.9,0.5-39.8,0.5-59.7C832.9,359.3,838.4,358.9,843.9,358.2z"/>
<path fill="#4AC4D0" d="M733,292l5.8,0.1l25.9,0c4.6,0,9.5,0.3,14.1-0.2l1.5,0.2l34.5,0l8.8,0c6.7,0,23.8-1.7,28.5,2.9
	c1.1,1.1,1.8,2.5,2.5,3.9c0.5,3.5,0.3,7.1,0.3,10.7c0,4.3,0.1,8.6-0.1,12.9c0,3.8,0.3,7.7,0,11.5c0,2.1,0.1,4.3-1.4,5.9
	c-2.1,2.4-6.3,1.9-9.2,1.8c0,5.9,0.2,12.1-0.2,17.9l-0.2-1.3c-5.5,0.7-11,1.2-16.6,1.3c-8.6-1.4-25.8-0.1-35.3-0.1l-84.6,0
	c0.1-5.3,0-10.6-0.2-16c-0.1-0.6-0.3-0.9-0.6-1.4c-3.9-0.6-6.6-0.9-9.3-3.9c-0.9-5.3-0.3-11.2-0.3-16.6l0-11.4l-0.1-4.9
	c0-2.9-0.7-8.6,1.7-10.7C703.1,290.4,726.1,292,733,292z"/>
<path fill="#45AFE8" d="M697,321.4L697,322c5.5,1.2,12.2,0.4,17.9,0.4l31.2-0.1l79.1,0.2c6.6,0,24.1,0.9,29.7-0.3
	c0,3.8,0.3,7.7,0,11.5c-0.6-2.5-0.5-5.2-0.5-7.8l-105.3,0l-32.1,0c-6.3,0-12.8-0.3-19,0.4c-1.3,2.8-0.5,8.4-0.6,11.6
	C696.4,332.7,697,326.7,697,321.4z"/>
<path fill="#4AC4D0" d="M779.3,309.5c17.9-0.3,35.8-0.4,53.7-0.4c6.8,0,15.4-0.9,22,0.3c0,4.3,0.1,8.6-0.1,12.9
	c-5.6,1.2-23.1,0.3-29.7,0.3l-79.1-0.2l-31.2,0.1c-5.7,0-12.3,0.8-17.9-0.4l0.1-0.6l0-11.4c8.5-1,17.9-0.2,26.5-0.2
	C742.2,309.9,760.7,309.8,779.3,309.5z"/>
<path fill="#85CEEC" d="M697.1,310c8.5-1,17.9-0.2,26.5-0.2c18.6,0.1,37.2,0,55.8-0.3c0.2,4.1,0.2,8.3,0.1,12.5l-82.5,0l0.1-0.6
	L697.1,310z"/>
<path fill="#DDD8D2" d="M778.9,341.5c21.7,0,43.4,0.2,65.1,0l-0.1,16.7c-5.5,0.7-11,1.2-16.6,1.3c-8.6-1.4-25.8-0.1-35.3-0.1
	l-84.6,0c0.1-5.3,0-10.6-0.2-16c0.2-0.9,0.3-1,0.8-1.6c6.6-0.8,14.1,0,20.8,0L778.9,341.5z"/>
<path fill="#4AC4D0" d="M733,292l5.8,0.1l25.9,0c4.6,0,9.5,0.3,14.1-0.2l1.5,0.2l34.5,0l8.8,0c6.7,0,23.8-1.7,28.5,2.9
	c1.1,1.1,1.8,2.5,2.5,3.9c0.5,3.5,0.3,7.1,0.3,10.7c-6.6-1.2-15.2-0.3-22-0.3c-17.9,0-35.8,0.1-53.7,0.4
	c-18.6,0.3-37.2,0.4-55.8,0.3c-8.6,0-18-0.8-26.5,0.2l-0.1-4.9c0-2.9-0.7-8.6,1.7-10.7C703.1,290.4,726.1,292,733,292z"/>
<path fill="#45AFE8" d="M854.7,298.7c0.5,3.5,0.3,7.1,0.3,10.7c-6.6-1.2-15.2-0.3-22-0.3c-17.9,0-35.8,0.1-53.7,0.4
	c-18.6,0.3-37.2,0.4-55.8,0.3c-8.6,0-18-0.8-26.5,0.2l-0.1-4.9c0.3,0.3,0.6,0.6,1,0.8c2.3,0.9,41.8,0.1,47,0.1
	c15,0.8,30.4,0,45.3-0.2c21.4-0.2,42.9-0.3,64.3-0.3C854.6,303.2,854.7,301,854.7,298.7z"/>
<path fill="#85CEEC" d="M733,292l5.8,0.1l25.9,0c4.6,0,9.5,0.3,14.1-0.2l1.5,0.2l-1.6,0.8c-0.4,4.2,0.4,8.3-0.4,12.5
	c-10.7,0.1-22.9-0.7-33.4,0.6c-5.1,0-44.7,0.8-47-0.1c-0.4-0.1-0.6-0.5-1-0.8c0-2.9-0.7-8.6,1.7-10.7C703.1,290.4,726.1,292,733,292
	z"/>
</svg>
