<svg width="155" height="66" viewBox="0 0 155 66" fill="none" xmlns="http://www.w3.org/2000/svg">
<path d="M58.7322 43.26C59.9122 43.48 60.8822 44.07 61.6422 45.03C62.4022 45.99 62.7822 47.09 62.7822 48.33C62.7822 49.45 62.5022 50.44 61.9422 51.3C61.4022 52.14 60.6122 52.8 59.5722 53.28C58.5322 53.76 57.3022 54 55.8822 54H46.8522V33.06H55.4922C56.9122 33.06 58.1322 33.29 59.1522 33.75C60.1922 34.21 60.9722 34.85 61.4922 35.67C62.0322 36.49 62.3022 37.42 62.3022 38.46C62.3022 39.68 61.9722 40.7 61.3122 41.52C60.6722 42.34 59.8122 42.92 58.7322 43.26ZM51.0522 41.7H54.8922C55.8922 41.7 56.6622 41.48 57.2022 41.04C57.7422 40.58 58.0122 39.93 58.0122 39.09C58.0122 38.25 57.7422 37.6 57.2022 37.14C56.6622 36.68 55.8922 36.45 54.8922 36.45H51.0522V41.7ZM55.2822 50.58C56.3022 50.58 57.0922 50.34 57.6522 49.86C58.2322 49.38 58.5222 48.7 58.5222 47.82C58.5222 46.92 58.2222 46.22 57.6222 45.72C57.0222 45.2 56.2122 44.94 55.1922 44.94H51.0522V50.58H55.2822ZM70.0296 39.96C70.5696 39.08 71.2696 38.39 72.1296 37.89C73.0096 37.39 74.0096 37.14 75.1296 37.14V41.55H74.0196C72.6996 41.55 71.6996 41.86 71.0196 42.48C70.3596 43.1 70.0296 44.18 70.0296 45.72V54H65.8296V37.38H70.0296V39.96ZM79.7885 35.4C79.0485 35.4 78.4285 35.17 77.9285 34.71C77.4485 34.23 77.2085 33.64 77.2085 32.94C77.2085 32.24 77.4485 31.66 77.9285 31.2C78.4285 30.72 79.0485 30.48 79.7885 30.48C80.5285 30.48 81.1385 30.72 81.6185 31.2C82.1185 31.66 82.3685 32.24 82.3685 32.94C82.3685 33.64 82.1185 34.23 81.6185 34.71C81.1385 35.17 80.5285 35.4 79.7885 35.4ZM81.8585 37.38V54H77.6585V37.38H81.8585ZM84.6281 45.63C84.6281 43.95 84.9581 42.46 85.6181 41.16C86.2981 39.86 87.2181 38.86 88.3781 38.16C89.5381 37.46 90.8281 37.11 92.2481 37.11C93.3281 37.11 94.3581 37.35 95.3381 37.83C96.3181 38.29 97.0981 38.91 97.6781 39.69V31.8H101.938V54H97.6781V51.54C97.1581 52.36 96.4281 53.02 95.4881 53.52C94.5481 54.02 93.4581 54.27 92.2181 54.27C90.8181 54.27 89.5381 53.91 88.3781 53.19C87.2181 52.47 86.2981 51.46 85.6181 50.16C84.9581 48.84 84.6281 47.33 84.6281 45.63ZM97.7081 45.69C97.7081 44.67 97.5081 43.8 97.1081 43.08C96.7081 42.34 96.1681 41.78 95.4881 41.4C94.8081 41 94.0781 40.8 93.2981 40.8C92.5181 40.8 91.7981 40.99 91.1381 41.37C90.4781 41.75 89.9381 42.31 89.5181 43.05C89.1181 43.77 88.9181 44.63 88.9181 45.63C88.9181 46.63 89.1181 47.51 89.5181 48.27C89.9381 49.01 90.4781 49.58 91.1381 49.98C91.8181 50.38 92.5381 50.58 93.2981 50.58C94.0781 50.58 94.8081 50.39 95.4881 50.01C96.1681 49.61 96.7081 49.05 97.1081 48.33C97.5081 47.59 97.7081 46.71 97.7081 45.69ZM112.25 37.11C113.49 37.11 114.58 37.36 115.52 37.86C116.46 38.34 117.2 38.97 117.74 39.75V37.38H121.97V54.12C121.97 55.66 121.66 57.03 121.04 58.23C120.42 59.45 119.49 60.41 118.25 61.11C117.01 61.83 115.51 62.19 113.75 62.19C111.39 62.19 109.45 61.64 107.93 60.54C106.43 59.44 105.58 57.94 105.38 56.04H109.55C109.77 56.8 110.24 57.4 110.96 57.84C111.7 58.3 112.59 58.53 113.63 58.53C114.85 58.53 115.84 58.16 116.6 57.42C117.36 56.7 117.74 55.6 117.74 54.12V51.54C117.2 52.32 116.45 52.97 115.49 53.49C114.55 54.01 113.47 54.27 112.25 54.27C110.85 54.27 109.57 53.91 108.41 53.19C107.25 52.47 106.33 51.46 105.65 50.16C104.99 48.84 104.66 47.33 104.66 45.63C104.66 43.95 104.99 42.46 105.65 41.16C106.33 39.86 107.24 38.86 108.38 38.16C109.54 37.46 110.83 37.11 112.25 37.11ZM117.74 45.69C117.74 44.67 117.54 43.8 117.14 43.08C116.74 42.34 116.2 41.78 115.52 41.4C114.84 41 114.11 40.8 113.33 40.8C112.55 40.8 111.83 40.99 111.17 41.37C110.51 41.75 109.97 42.31 109.55 43.05C109.15 43.77 108.95 44.63 108.95 45.63C108.95 46.63 109.15 47.51 109.55 48.27C109.97 49.01 110.51 49.58 111.17 49.98C111.85 50.38 112.57 50.58 113.33 50.58C114.11 50.58 114.84 50.39 115.52 50.01C116.2 49.61 116.74 49.05 117.14 48.33C117.54 47.59 117.74 46.71 117.74 45.69ZM141.222 45.33C141.222 45.93 141.182 46.47 141.102 46.95H128.952C129.052 48.15 129.472 49.09 130.212 49.77C130.952 50.45 131.862 50.79 132.942 50.79C134.502 50.79 135.612 50.12 136.272 48.78H140.802C140.322 50.38 139.402 51.7 138.042 52.74C136.682 53.76 135.012 54.27 133.032 54.27C131.432 54.27 129.992 53.92 128.712 53.22C127.452 52.5 126.462 51.49 125.742 50.19C125.042 48.89 124.692 47.39 124.692 45.69C124.692 43.97 125.042 42.46 125.742 41.16C126.442 39.86 127.422 38.86 128.682 38.16C129.942 37.46 131.392 37.11 133.032 37.11C134.612 37.11 136.022 37.45 137.262 38.13C138.522 38.81 139.492 39.78 140.172 41.04C140.872 42.28 141.222 43.71 141.222 45.33ZM136.872 44.13C136.852 43.05 136.462 42.19 135.702 41.55C134.942 40.89 134.012 40.56 132.912 40.56C131.872 40.56 130.992 40.88 130.272 41.52C129.572 42.14 129.142 43.01 128.982 44.13H136.872Z" fill="#DB2C2C"/>
<path d="M20.5914 0C22.9159 2.16416 36.9428 27.4928 38.626 31.5005C39.9085 34.5463 40.9505 37.7525 41.2711 41.0388C41.752 46.5695 39.8283 51.7795 36.3016 56.0276C32.2137 60.8369 27.2442 62.6804 21.1525 63.1613C17.0646 62.9208 13.3776 61.959 9.93094 59.7147C9.61032 59.5544 9.36983 59.3139 9.04922 59.1536C8.7286 58.9132 8.48816 58.7529 8.16754 58.5124C7.92708 58.2719 7.60647 58.0315 7.366 57.8712C7.12554 57.6307 6.80493 57.3902 6.56446 57.1498C6.324 56.9093 6.08352 56.6689 5.84306 56.4284C5.6026 56.1879 5.36217 55.9475 5.1217 55.6269C4.88124 55.3864 4.64074 55.0658 4.48043 54.8253C4.23997 54.5849 4.07967 54.2642 3.83921 53.9436C3.59875 53.623 3.43843 53.3825 3.27812 53.0619C3.11782 52.7413 2.87739 52.4207 2.71708 52.1803C2.55678 51.9398 2.39644 51.539 2.23613 51.2184C2.07582 50.8978 1.91554 50.5772 1.75523 50.2565C1.59492 49.9359 1.51477 49.6153 1.35446 49.2947C1.19415 48.9741 1.11398 48.6534 1.03382 48.3328C0.953668 48.0122 0.793389 47.6916 0.713235 47.2908C0.633081 46.9702 0.552888 46.5695 0.472734 46.2488C-1.85173 35.4281 4.8812 25.8096 10.0912 16.9926C13.4577 11.1414 16.9043 5.53062 20.5914 0Z" fill="#DB2C2C"/>
<path d="M23.1566 23.6455C26.2826 26.1303 30.5308 34.2258 31.7331 38.0732C32.7751 41.4397 32.6148 44.8863 30.8514 48.0123C29.0079 51.2185 26.0422 52.8216 22.5955 53.8636C20.2711 53.7033 18.1871 53.062 16.2634 51.6994C14.4198 50.4169 13.6183 48.4131 13.3778 46.2489C12.2557 37.7526 18.4275 30.0578 23.1566 23.6455Z" fill="#A73022"/>
</svg>
